999
"DXF R12 Output" (www.mydxf.blogspot.com)
 0 
SECTION
 2 
HEADER
 9 
$ACADVER
 1 
AC1009
 9 
$EXTMIN
 10 
 0 
 20 
 0 
 9 
$EXTMAX
 10 
 8.5 
 20 
 11 
 0 
ENDSEC
 0 
SECTION
 2 
ENTITIES
0
POLYLINE
8
Layer 1
62
7
70
1
10
0.000000
20
0.000000
66
1
0
VERTEX
8
Layer 1
10
59.462383
20
67.669862
70
0
0
VERTEX
8
Layer 1
10
59.597850
20
67.911162
70
0
0
VERTEX
8
Layer 1
10
60.080978
20
68.548013
70
0
0
VERTEX
8
Layer 1
10
60.858435
20
69.105490
70
0
0
VERTEX
8
Layer 1
10
61.750663
20
69.379995
70
0
0
VERTEX
8
Layer 1
10
62.684016
20
69.361209
70
0
0
VERTEX
8
Layer 1
10
63.584851
20
69.038815
70
0
0
VERTEX
8
Layer 1
10
68.434658
20
66.344566
70
0
0
VERTEX
8
Layer 1
10
69.199832
20
66.146129
70
0
0
VERTEX
8
Layer 1
10
70.114495
20
66.146129
70
0
0
VERTEX
8
Layer 1
10
70.582245
20
66.339837
70
0
0
VERTEX
8
Layer 1
10
70.775953
20
66.807587
70
0
0
VERTEX
8
Layer 1
10
70.969660
20
67.275336
70
0
0
VERTEX
8
Layer 1
10
71.437410
20
67.469044
70
0
0
VERTEX
8
Layer 1
10
71.752264
20
67.469044
70
0
0
VERTEX
8
Layer 1
10
72.367948
20
67.250498
70
0
0
VERTEX
8
Layer 1
10
73.855699
20
66.041619
70
0
0
VERTEX
8
Layer 1
10
74.218607
20
65.908765
70
0
0
VERTEX
8
Layer 1
10
74.586477
20
66.027331
70
0
0
VERTEX
8
Layer 1
10
74.942606
20
66.146129
70
0
0
VERTEX
8
Layer 1
10
75.585013
20
66.146129
70
0
0
VERTEX
8
Layer 1
10
76.367418
20
65.866332
70
0
0
VERTEX
8
Layer 1
10
76.795216
20
65.153943
70
0
0
VERTEX
8
Layer 1
10
76.961374
20
64.323417
70
0
0
VERTEX
8
Layer 1
10
77.158488
20
64.161756
70
0
0
VERTEX
8
Layer 1
10
77.357719
20
63.932098
70
0
0
VERTEX
8
Layer 1
10
77.119065
20
62.262315
70
0
0
VERTEX
8
Layer 1
10
77.202211
20
61.459339
70
0
0
VERTEX
8
Layer 1
10
77.653258
20
60.789911
70
0
0
VERTEX
8
Layer 1
10
78.316568
20
60.193012
70
0
0
VERTEX
8
Layer 1
10
79.939785
20
58.905551
70
0
0
VERTEX
8
Layer 1
10
81.028569
20
58.276877
70
0
0
VERTEX
8
Layer 1
10
82.227634
20
57.993335
70
0
0
VERTEX
8
Layer 1
10
83.457854
20
58.061919
70
0
0
VERTEX
8
Layer 1
10
84.640102
20
58.489626
70
0
0
VERTEX
8
Layer 1
10
85.311084
20
58.850782
70
0
0
VERTEX
8
Layer 1
10
85.912217
20
59.002388
70
0
0
VERTEX
8
Layer 1
10
86.338195
20
59.002388
70
0
0
VERTEX
8
Layer 1
10
86.933474
20
59.249012
70
0
0
VERTEX
8
Layer 1
10
87.180098
20
59.844291
70
0
0
VERTEX
8
Layer 1
10
87.426690
20
60.439603
70
0
0
VERTEX
8
Layer 1
10
87.510827
20
60.523740
70
0
0
VERTEX
8
Layer 1
10
87.877142
20
60.768480
70
0
0
VERTEX
8
Layer 1
10
88.309339
20
60.854469
70
0
0
VERTEX
8
Layer 1
10
89.910066
20
60.854469
70
0
0
VERTEX
8
Layer 1
10
90.505345
20
61.101093
70
0
0
VERTEX
8
Layer 1
10
90.751969
20
61.696372
70
0
0
VERTEX
8
Layer 1
10
90.751969
20
61.744791
70
0
0
VERTEX
8
Layer 1
10
90.964429
20
62.257553
70
0
0
VERTEX
8
Layer 1
10
91.310371
20
62.450368
70
0
0
VERTEX
8
Layer 1
10
91.706320
20
62.432442
70
0
0
VERTEX
8
Layer 1
10
92.429954
20
62.191407
70
0
0
VERTEX
8
Layer 1
10
93.195658
20
61.718068
70
0
0
VERTEX
8
Layer 1
10
93.321335
20
61.592391
70
0
0
VERTEX
8
Layer 1
10
93.787265
20
61.238908
70
0
0
VERTEX
8
Layer 1
10
94.278331
20
60.962683
70
0
0
VERTEX
8
Layer 1
10
94.872705
20
60.769625
70
0
0
VERTEX
8
Layer 1
10
95.474346
20
60.816799
70
0
0
VERTEX
8
Layer 1
10
96.014818
20
61.085280
70
0
0
VERTEX
8
Layer 1
10
96.425687
20
61.556143
70
0
0
VERTEX
8
Layer 1
10
96.768487
20
61.971241
70
0
0
VERTEX
8
Layer 1
10
97.230548
20
62.247234
70
0
0
VERTEX
8
Layer 1
10
99.156977
20
62.988066
70
0
0
VERTEX
8
Layer 1
10
100.157696
20
63.219973
70
0
0
VERTEX
8
Layer 1
10
101.183418
20
63.166924
70
0
0
VERTEX
8
Layer 1
10
102.047811
20
62.999708
70
0
0
VERTEX
8
Layer 1
10
102.985654
20
62.986855
70
0
0
VERTEX
8
Layer 1
10
103.845487
20
63.288996
70
0
0
VERTEX
8
Layer 1
10
104.552474
20
63.864138
70
0
0
VERTEX
8
Layer 1
10
105.031778
20
64.670285
70
0
0
VERTEX
8
Layer 1
10
105.601690
20
66.190579
70
0
0
VERTEX
8
Layer 1
10
105.603476
20
66.723052
70
0
0
VERTEX
8
Layer 1
10
105.257203
20
67.127732
70
0
0
VERTEX
8
Layer 1
10
104.902595
20
67.555331
70
0
0
VERTEX
8
Layer 1
10
104.930972
20
68.110129
70
0
0
VERTEX
8
Layer 1
10
105.440294
20
69.241486
70
0
0
VERTEX
8
Layer 1
10
105.986724
20
69.877510
70
0
0
VERTEX
8
Layer 1
10
106.790726
20
70.114874
70
0
0
VERTEX
8
Layer 1
10
107.149236
20
70.114874
70
0
0
VERTEX
8
Layer 1
10
107.508242
20
70.201790
70
0
0
VERTEX
8
Layer 1
10
107.787675
20
70.443486
70
0
0
VERTEX
8
Layer 1
10
108.271498
20
70.756488
70
0
0
VERTEX
8
Layer 1
10
108.838863
20
70.654359
70
0
0
VERTEX
8
Layer 1
10
110.415248
20
69.678577
70
0
0
VERTEX
8
Layer 1
10
110.997596
20
69.504183
70
0
0
VERTEX
8
Layer 1
10
111.588674
20
69.646298
70
0
0
VERTEX
8
Layer 1
10
112.377627
20
69.765922
70
0
0
VERTEX
8
Layer 1
10
113.059226
20
69.350758
70
0
0
VERTEX
8
Layer 1
10
113.193899
20
69.182219
70
0
0
VERTEX
8
Layer 1
10
113.425806
20
68.763781
70
0
0
VERTEX
8
Layer 1
10
113.506107
20
68.292162
70
0
0
VERTEX
8
Layer 1
10
113.506107
20
68.052714
70
0
0
VERTEX
8
Layer 1
10
113.582538
20
67.490244
70
0
0
VERTEX
8
Layer 1
10
113.806409
20
66.968453
70
0
0
VERTEX
8
Layer 1
10
114.182117
20
66.342185
70
0
0
VERTEX
8
Layer 1
10
114.299856
20
65.917529
70
0
0
VERTEX
8
Layer 1
10
114.299856
20
65.861173
70
0
0
VERTEX
8
Layer 1
10
114.214239
20
65.504019
70
0
0
VERTEX
8
Layer 1
10
113.988376
20
65.236162
70
0
0
VERTEX
8
Layer 1
10
113.668751
20
65.092626
70
0
0
VERTEX
8
Layer 1
10
113.301849
20
65.108434
70
0
0
VERTEX
8
Layer 1
10
112.664171
20
65.014706
70
0
0
VERTEX
8
Layer 1
10
112.312838
20
64.474494
70
0
0
VERTEX
8
Layer 1
10
112.159115
20
63.476487
70
0
0
VERTEX
8
Layer 1
10
112.280265
20
62.542426
70
0
0
VERTEX
8
Layer 1
10
112.841772
20
61.859686
70
0
0
VERTEX
8
Layer 1
10
113.670425
20
61.551695
70
0
0
VERTEX
8
Layer 1
10
114.593014
20
61.741880
70
0
0
VERTEX
8
Layer 1
10
121.443597
20
65.352380
70
0
0
VERTEX
8
Layer 1
10
124.147371
20
66.786949
70
0
0
VERTEX
8
Layer 1
10
124.937349
20
67.106277
70
0
0
VERTEX
8
Layer 1
10
125.749553
20
67.251482
70
0
0
VERTEX
8
Layer 1
10
126.559872
20
67.230633
70
0
0
VERTEX
8
Layer 1
10
127.344195
20
67.051797
70
0
0
VERTEX
8
Layer 1
10
128.078413
20
66.723041
70
0
0
VERTEX
8
Layer 1
10
128.738415
20
66.252433
70
0
0
VERTEX
8
Layer 1
10
129.300092
20
65.648042
70
0
0
VERTEX
8
Layer 1
10
129.739332
20
64.917935
70
0
0
VERTEX
8
Layer 1
10
130.486515
20
63.321441
70
0
0
VERTEX
8
Layer 1
10
130.965278
20
62.776896
70
0
0
VERTEX
8
Layer 1
10
131.661528
20
62.574259
70
0
0
VERTEX
8
Layer 1
10
132.126169
20
62.488170
70
0
0
VERTEX
8
Layer 1
10
132.529096
20
62.241149
70
0
0
VERTEX
8
Layer 1
10
133.199813
20
61.637899
70
0
0
VERTEX
8
Layer 1
10
133.478122
20
61.535109
70
0
0
VERTEX
8
Layer 1
10
133.750675
20
61.652187
70
0
0
VERTEX
8
Layer 1
10
134.098040
20
61.764403
70
0
0
VERTEX
8
Layer 1
10
134.392024
20
61.548206
70
0
0
VERTEX
8
Layer 1
10
135.392413
20
59.547429
70
0
0
VERTEX
8
Layer 1
10
135.300867
20
59.399263
70
0
0
VERTEX
8
Layer 1
10
135.225196
20
59.228077
70
0
0
VERTEX
8
Layer 1
10
136.658442
20
57.651427
70
0
0
VERTEX
8
Layer 1
10
137.094785
20
57.364074
70
0
0
VERTEX
8
Layer 1
10
137.588749
20
57.321294
70
0
0
VERTEX
8
Layer 1
10
138.047640
20
57.508999
70
0
0
VERTEX
8
Layer 1
10
138.378761
20
57.913100
70
0
0
VERTEX
8
Layer 1
10
141.261657
20
64.102754
70
0
0
VERTEX
8
Layer 1
10
141.813855
20
64.979111
70
0
0
VERTEX
8
Layer 1
10
142.555237
20
65.680000
70
0
0
VERTEX
8
Layer 1
10
143.446489
20
66.176597
70
0
0
VERTEX
8
Layer 1
10
144.448295
20
66.440081
70
0
0
VERTEX
8
Layer 1
10
146.162264
20
66.665770
70
0
0
VERTEX
8
Layer 1
10
147.087709
20
66.507119
70
0
0
VERTEX
8
Layer 1
10
147.761139
20
65.852971
70
0
0
VERTEX
8
Layer 1
10
148.467046
20
64.558896
70
0
0
VERTEX
8
Layer 1
10
148.874173
20
64.283068
70
0
0
VERTEX
8
Layer 1
10
149.334879
20
64.454914
70
0
0
VERTEX
8
Layer 1
10
149.842349
20
65.012920
70
0
0
VERTEX
8
Layer 1
10
149.877770
20
65.231565
70
0
0
VERTEX
8
Layer 1
10
149.692330
20
65.352380
70
0
0
VERTEX
8
Layer 1
10
149.489395
20
65.555315
70
0
0
VERTEX
8
Layer 1
10
149.489395
20
66.079983
70
0
0
VERTEX
8
Layer 1
10
149.702484
20
66.594498
70
0
0
VERTEX
8
Layer 1
10
150.216998
20
66.807587
70
0
0
VERTEX
8
Layer 1
10
151.473768
20
66.807587
70
0
0
VERTEX
8
Layer 1
10
152.399808
20
66.807587
70
0
0
VERTEX
8
Layer 1
10
153.402048
20
66.807587
70
0
0
VERTEX
8
Layer 1
10
153.628763
20
66.901547
70
0
0
VERTEX
8
Layer 1
10
153.722723
20
67.128261
70
0
0
VERTEX
8
Layer 1
10
153.913223
20
67.421419
70
0
0
VERTEX
8
Layer 1
10
154.620189
20
67.735744
70
0
0
VERTEX
8
Layer 1
10
155.234021
20
67.865919
70
0
0
VERTEX
8
Layer 1
10
155.469765
20
67.865919
70
0
0
VERTEX
8
Layer 1
10
155.926832
20
67.767130
70
0
0
VERTEX
8
Layer 1
10
156.302143
20
67.488359
70
0
0
VERTEX
8
Layer 1
10
156.618055
20
67.127203
70
0
0
VERTEX
8
Layer 1
10
156.922821
20
66.957010
70
0
0
VERTEX
8
Layer 1
10
157.266283
20
67.018195
70
0
0
VERTEX
8
Layer 1
10
157.712337
20
67.051201
70
0
0
VERTEX
8
Layer 1
10
158.018493
20
66.725037
70
0
0
VERTEX
8
Layer 1
10
158.614863
20
64.850731
70
0
0
VERTEX
8
Layer 1
10
158.628489
20
64.455907
70
0
0
VERTEX
8
Layer 1
10
158.434946
20
64.111486
70
0
0
VERTEX
8
Layer 1
10
158.220634
20
63.594226
70
0
0
VERTEX
8
Layer 1
10
158.220634
20
63.054477
70
0
0
VERTEX
8
Layer 1
10
158.435475
20
62.144840
70
0
0
VERTEX
8
Layer 1
10
159.006710
20
61.002106
70
0
0
VERTEX
8
Layer 1
10
159.464054
20
60.302805
70
0
0
VERTEX
8
Layer 1
10
160.060974
20
59.733431
70
0
0
VERTEX
8
Layer 1
10
160.771251
20
59.313877
70
0
0
VERTEX
8
Layer 1
10
161.568667
20
59.064036
70
0
0
VERTEX
8
Layer 1
10
162.520868
20
58.740418
70
0
0
VERTEX
8
Layer 1
10
163.347459
20
58.167364
70
0
0
VERTEX
8
Layer 1
10
166.025833
20
55.695101
70
0
0
VERTEX
8
Layer 1
10
168.023699
20
53.610186
70
0
0
VERTEX
8
Layer 1
10
168.346573
20
53.433631
70
0
0
VERTEX
8
Layer 1
10
168.688001
20
53.471115
70
0
0
VERTEX
8
Layer 1
10
168.958487
20
53.685159
70
0
0
VERTEX
8
Layer 1
10
169.068537
20
54.038282
70
0
0
VERTEX
8
Layer 1
10
169.242864
20
54.460755
70
0
0
VERTEX
8
Layer 1
10
169.663849
20
54.636769
70
0
0
VERTEX
8
Layer 1
10
170.026327
20
54.636769
70
0
0
VERTEX
8
Layer 1
10
170.259161
20
54.869602
70
0
0
VERTEX
8
Layer 1
10
170.413677
20
55.088941
70
0
0
VERTEX
8
Layer 1
10
171.271984
20
55.395328
70
0
0
VERTEX
8
Layer 1
10
172.066792
20
55.458067
70
0
0
VERTEX
8
Layer 1
10
172.784605
20
55.111430
70
0
0
VERTEX
8
Layer 1
10
173.578619
20
54.423250
70
0
0
VERTEX
8
Layer 1
10
174.106726
20
54.212080
70
0
0
VERTEX
8
Layer 1
10
174.652297
20
54.372979
70
0
0
VERTEX
8
Layer 1
10
175.037166
20
54.526272
70
0
0
VERTEX
8
Layer 1
10
175.449221
20
54.484104
70
0
0
VERTEX
8
Layer 1
10
176.405953
20
54.142527
70
0
0
VERTEX
8
Layer 1
10
177.171921
20
53.577907
70
0
0
VERTEX
8
Layer 1
10
177.409516
20
53.260937
70
0
0
VERTEX
8
Layer 1
10
177.712894
20
53.007698
70
0
0
VERTEX
8
Layer 1
10
178.097432
20
52.916979
70
0
0
VERTEX
8
Layer 1
10
178.667046
20
53.132912
70
0
0
VERTEX
8
Layer 1
10
178.950712
20
53.672099
70
0
0
VERTEX
8
Layer 1
10
179.425639
20
57.551150
70
0
0
VERTEX
8
Layer 1
10
179.629983
20
58.394323
70
0
0
VERTEX
8
Layer 1
10
180.016816
20
59.158393
70
0
0
VERTEX
8
Layer 1
10
180.567112
20
59.814563
70
0
0
VERTEX
8
Layer 1
10
181.261845
20
60.334034
70
0
0
VERTEX
8
Layer 1
10
182.046333
20
60.789646
70
0
0
VERTEX
8
Layer 1
10
182.839834
20
61.088571
70
0
0
VERTEX
8
Layer 1
10
183.666176
20
61.114918
70
0
0
VERTEX
8
Layer 1
10
184.458090
20
60.877492
70
0
0
VERTEX
8
Layer 1
10
185.148304
20
60.385099
70
0
0
VERTEX
8
Layer 1
10
185.488029
20
59.964941
70
0
0
VERTEX
8
Layer 1
10
186.795598
20
57.944056
70
0
0
VERTEX
8
Layer 1
10
186.884762
20
57.783454
70
0
0
VERTEX
8
Layer 1
10
187.120593
20
57.549629
70
0
0
VERTEX
8
Layer 1
10
187.424611
20
57.481697
70
0
0
VERTEX
8
Layer 1
10
187.721436
20
57.576286
70
0
0
VERTEX
8
Layer 1
10
187.935686
20
57.830021
70
0
0
VERTEX
8
Layer 1
10
187.986221
20
58.068675
70
0
0
VERTEX
8
Layer 1
10
187.986221
20
58.701293
70
0
0
VERTEX
8
Layer 1
10
188.101414
20
59.357591
70
0
0
VERTEX
8
Layer 1
10
188.433102
20
59.935308
70
0
0
VERTEX
8
Layer 1
10
188.982376
20
60.594384
70
0
0
VERTEX
8
Layer 1
10
189.350775
20
60.829267
70
0
0
VERTEX
8
Layer 1
10
189.787238
20
60.807373
70
0
0
VERTEX
8
Layer 1
10
190.287994
20
60.805918
70
0
0
VERTEX
8
Layer 1
10
190.668299
20
61.131487
70
0
0
VERTEX
8
Layer 1
10
190.698197
20
61.185198
70
0
0
VERTEX
8
Layer 1
10
191.116205
20
61.543145
70
0
0
VERTEX
8
Layer 1
10
191.666571
20
61.541326
70
0
0
VERTEX
8
Layer 1
10
192.087258
20
61.383635
70
0
0
VERTEX
8
Layer 1
10
193.210942
20
61.077248
70
0
0
VERTEX
8
Layer 1
10
193.450125
20
60.916216
70
0
0
VERTEX
8
Layer 1
10
193.542465
20
60.643067
70
0
0
VERTEX
8
Layer 1
10
193.674326
20
60.324873
70
0
0
VERTEX
8
Layer 1
10
193.992520
20
60.193012
70
0
0
VERTEX
8
Layer 1
10
194.102322
20
60.193012
70
0
0
VERTEX
8
Layer 1
10
194.298907
20
60.228730
70
0
0
VERTEX
8
Layer 1
10
194.436490
20
60.280324
70
0
0
VERTEX
8
Layer 1
10
195.207419
20
60.336316
70
0
0
VERTEX
8
Layer 1
10
195.885876
20
59.966264
70
0
0
VERTEX
8
Layer 1
10
195.907572
20
59.944568
70
0
0
VERTEX
8
Layer 1
10
196.264693
20
59.343700
70
0
0
VERTEX
8
Layer 1
10
196.291217
20
58.645201
70
0
0
VERTEX
8
Layer 1
10
196.211578
20
58.273197
70
0
0
VERTEX
8
Layer 1
10
196.259533
20
57.623315
70
0
0
VERTEX
8
Layer 1
10
196.649992
20
57.101624
70
0
0
VERTEX
8
Layer 1
10
196.914575
20
56.903451
70
0
0
VERTEX
8
Layer 1
10
197.114335
20
56.503666
70
0
0
VERTEX
8
Layer 1
10
197.351269
20
56.078614
70
0
0
VERTEX
8
Layer 1
10
197.837440
20
56.056785
70
0
0
VERTEX
8
Layer 1
10
199.487909
20
56.882020
70
0
0
VERTEX
8
Layer 1
10
200.074783
20
57.048835
70
0
0
VERTEX
8
Layer 1
10
200.663617
20
56.994368
70
0
0
VERTEX
8
Layer 1
10
201.195152
20
56.735164
70
0
0
VERTEX
8
Layer 1
10
201.610129
20
56.287766
70
0
0
VERTEX
8
Layer 1
10
202.704180
20
54.547339
70
0
0
VERTEX
8
Layer 1
10
203.091670
20
53.736897
70
0
0
VERTEX
8
Layer 1
10
203.282558
20
52.870743
70
0
0
VERTEX
8
Layer 1
10
203.273224
20
51.983853
70
0
0
VERTEX
8
Layer 1
10
203.060044
20
51.111200
70
0
0
VERTEX
8
Layer 1
10
202.632213
20
49.956031
70
0
0
VERTEX
8
Layer 1
10
202.061243
20
48.792130
70
0
0
VERTEX
8
Layer 1
10
196.756090
20
40.281553
70
0
0
VERTEX
8
Layer 1
10
195.147425
20
38.196639
70
0
0
VERTEX
8
Layer 1
10
190.264810
20
33.026952
70
0
0
VERTEX
8
Layer 1
10
188.163757
20
31.224083
70
0
0
VERTEX
8
Layer 1
10
185.346477
20
29.278605
70
0
0
VERTEX
8
Layer 1
10
183.690485
20
28.304807
70
0
0
VERTEX
8
Layer 1
10
181.910867
20
27.581040
70
0
0
VERTEX
8
Layer 1
10
180.504343
20
27.124899
70
0
0
VERTEX
8
Layer 1
10
178.836941
20
26.725279
70
0
0
VERTEX
8
Layer 1
10
177.127471
20
26.590970
70
0
0
VERTEX
8
Layer 1
10
175.444723
20
26.590970
70
0
0
VERTEX
8
Layer 1
10
174.144628
20
26.767745
70
0
0
VERTEX
8
Layer 1
10
172.938593
20
27.285236
70
0
0
VERTEX
8
Layer 1
10
171.681724
20
28.369067
70
0
0
VERTEX
8
Layer 1
10
170.861616
20
29.812269
70
0
0
VERTEX
8
Layer 1
10
170.259161
20
31.485756
70
0
0
VERTEX
8
Layer 1
10
168.916137
20
35.322739
70
0
0
VERTEX
8
Layer 1
10
168.612384
20
35.810671
70
0
0
VERTEX
8
Layer 1
10
168.150996
20
36.111924
70
0
0
VERTEX
8
Layer 1
10
167.606712
20
36.197773
70
0
0
VERTEX
8
Layer 1
10
167.054267
20
36.039494
70
0
0
VERTEX
8
Layer 1
10
166.841277
20
35.946890
70
0
0
VERTEX
8
Layer 1
10
165.318867
20
35.439420
70
0
0
VERTEX
8
Layer 1
10
163.879535
20
34.809977
70
0
0
VERTEX
8
Layer 1
10
161.854648
20
34.007827
70
0
0
VERTEX
8
Layer 1
10
159.693832
20
33.734712
70
0
0
VERTEX
8
Layer 1
10
154.384181
20
33.734712
70
0
0
VERTEX
8
Layer 1
10
136.260245
20
33.734712
70
0
0
VERTEX
8
Layer 1
10
131.017797
20
33.734712
70
0
0
VERTEX
8
Layer 1
10
128.302911
20
33.453195
70
0
0
VERTEX
8
Layer 1
10
124.516199
20
32.659182
70
0
0
VERTEX
8
Layer 1
10
122.990205
20
32.431161
70
0
0
VERTEX
8
Layer 1
10
121.453221
20
32.382229
70
0
0
VERTEX
8
Layer 1
10
119.920951
20
32.511991
70
0
0
VERTEX
8
Layer 1
10
118.409095
20
32.820048
70
0
0
VERTEX
8
Layer 1
10
114.961314
20
33.734712
70
0
0
VERTEX
8
Layer 1
10
109.183350
20
34.980897
70
0
0
VERTEX
8
Layer 1
10
107.307721
20
35.589967
70
0
0
VERTEX
8
Layer 1
10
104.553941
20
36.804933
70
0
0
VERTEX
8
Layer 1
10
103.843867
20
37.298314
70
0
0
VERTEX
8
Layer 1
10
103.369932
20
38.021485
70
0
0
VERTEX
8
Layer 1
10
102.877907
20
38.763769
70
0
0
VERTEX
8
Layer 1
10
102.165815
20
39.246670
70
0
0
VERTEX
8
Layer 1
10
101.325334
20
39.430774
70
0
0
VERTEX
8
Layer 1
10
100.448142
20
39.276667
70
0
0
VERTEX
8
Layer 1
10
100.144666
20
39.158663
70
0
0
VERTEX
8
Layer 1
10
99.352835
20
38.849651
70
0
0
VERTEX
8
Layer 1
10
98.524888
20
38.690781
70
0
0
VERTEX
8
Layer 1
10
97.681861
20
38.684162
70
0
0
VERTEX
8
Layer 1
10
96.844786
20
38.831903
70
0
0
VERTEX
8
Layer 1
10
95.646755
20
39.158663
70
0
0
VERTEX
8
Layer 1
10
93.140095
20
39.994216
70
0
0
VERTEX
8
Layer 1
10
92.626010
20
40.236310
70
0
0
VERTEX
8
Layer 1
10
91.784322
20
40.563189
70
0
0
VERTEX
8
Layer 1
10
90.909793
20
40.561383
70
0
0
VERTEX
8
Layer 1
10
90.093405
20
40.247881
70
0
0
VERTEX
8
Layer 1
10
89.426144
20
39.639675
70
0
0
VERTEX
8
Layer 1
10
88.233139
20
38.049266
70
0
0
VERTEX
8
Layer 1
10
87.669436
20
37.426318
70
0
0
VERTEX
8
Layer 1
10
87.007061
20
36.920721
70
0
0
VERTEX
8
Layer 1
10
86.263922
20
36.543760
70
0
0
VERTEX
8
Layer 1
10
85.457928
20
36.306723
70
0
0
VERTEX
8
Layer 1
10
81.110300
20
35.452914
70
0
0
VERTEX
8
Layer 1
10
80.541000
20
35.444501
70
0
0
VERTEX
8
Layer 1
10
80.019623
20
35.628894
70
0
0
VERTEX
8
Layer 1
10
79.592404
20
35.980025
70
0
0
VERTEX
8
Layer 1
10
79.305579
20
36.471823
70
0
0
VERTEX
8
Layer 1
10
79.141802
20
36.799376
70
0
0
VERTEX
8
Layer 1
10
77.743217
20
38.938265
70
0
0
VERTEX
8
Layer 1
10
76.025279
20
41.053077
70
0
0
VERTEX
8
Layer 1
10
75.159034
20
41.919322
70
0
0
VERTEX
8
Layer 1
10
74.261834
20
42.665711
70
0
0
VERTEX
8
Layer 1
10
73.075973
20
43.480891
70
0
0
VERTEX
8
Layer 1
10
72.603560
20
43.710086
70
0
0
VERTEX
8
Layer 1
10
72.084315
20
43.788865
70
0
0
VERTEX
8
Layer 1
10
71.353165
20
43.629599
70
0
0
VERTEX
8
Layer 1
10
70.775953
20
43.201127
70
0
0
VERTEX
8
Layer 1
10
70.418410
20
42.577443
70
0
0
VERTEX
8
Layer 1
10
70.346270
20
41.832539
70
0
0
VERTEX
8
Layer 1
10
70.924384
20
36.948866
70
0
0
VERTEX
8
Layer 1
10
70.826314
20
35.646390
70
0
0
VERTEX
8
Layer 1
10
70.268615
20
34.512784
70
0
0
VERTEX
8
Layer 1
10
69.335869
20
33.660661
70
0
0
VERTEX
8
Layer 1
10
68.112660
20
33.202635
70
0
0
VERTEX
8
Layer 1
10
64.649004
20
32.625315
70
0
0
VERTEX
8
Layer 1
10
64.309445
20
32.718812
70
0
0
VERTEX
8
Layer 1
10
64.161378
20
33.038329
70
0
0
VERTEX
8
Layer 1
10
64.155557
20
33.107650
70
0
0
VERTEX
8
Layer 1
10
58.894853
20
64.421842
70
0
0
VERTEX
8
Layer 1
10
58.900211
20
66.094568
70
0
0
VERTEX
8
Layer 1
10
59.462383
20
67.669862
70
0
0
VERTEX
8
Layer 1
10
59.462383
20
67.669862
70
0
0
SEQEND
8
Layer 1
0
POLYLINE
8
Layer 1
62
13
70
0
10
0.000000
20
0.000000
66
1
0
VERTEX
8
Layer 1
10
183.415550
20
55.855967
70
0
0
VERTEX
8
Layer 1
10
183.404188
20
56.190318
70
0
0
VERTEX
8
Layer 1
10
183.769893
20
57.137797
70
0
0
VERTEX
8
Layer 1
10
185.135670
20
60.038627
70
0
0
VERTEX
8
Layer 1
10
186.519208
20
62.891436
70
0
0
VERTEX
8
Layer 1
10
186.907114
20
63.778887
70
0
0
VERTEX
8
Layer 1
10
186.926831
20
64.029200
70
0
0
VERTEX
8
Layer 1
10
185.330660
20
64.792857
70
0
0
VERTEX
8
Layer 1
10
183.607241
20
65.099538
70
0
0
VERTEX
8
Layer 1
10
181.855445
20
64.936269
70
0
0
VERTEX
8
Layer 1
10
180.174144
20
64.290079
70
0
0
VERTEX
8
Layer 1
10
180.053759
20
64.221817
70
0
0
VERTEX
8
Layer 1
10
179.269270
20
63.766205
70
0
0
VERTEX
8
Layer 1
10
177.920496
20
62.772812
70
0
0
VERTEX
8
Layer 1
10
176.830509
20
61.529288
70
0
0
VERTEX
8
Layer 1
10
176.031481
20
60.084351
70
0
0
VERTEX
8
Layer 1
10
175.555583
20
58.486716
70
0
0
VERTEX
8
Layer 1
10
174.883807
20
58.495447
70
0
0
VERTEX
8
Layer 1
10
174.697584
20
58.373336
70
0
0
VERTEX
8
Layer 1
10
174.647306
20
57.701432
70
0
0
VERTEX
8
Layer 1
10
174.875369
20
55.012584
70
0
0
VERTEX
8
Layer 1
10
176.091463
20
46.385086
70
0
0
VERTEX
8
Layer 1
10
177.264644
20
37.482356
70
0
0
VERTEX
8
Layer 1
10
177.439067
20
34.449467
70
0
0
VERTEX
8
Layer 1
10
177.353923
20
33.553937
70
0
0
VERTEX
8
Layer 1
10
177.127471
20
33.173796
70
0
0
VERTEX
8
Layer 1
10
173.996925
20
56.237760
70
0
0
VERTEX
8
Layer 1
10
169.078856
20
58.826440
70
0
0
VERTEX
8
Layer 1
10
168.861249
20
52.145075
70
0
0
VERTEX
8
Layer 1
10
168.829680
20
51.800488
70
0
0
VERTEX
8
Layer 1
10
168.804887
20
51.847824
70
0
0
VERTEX
8
Layer 1
10
168.770914
20
52.841507
70
0
0
VERTEX
8
Layer 1
10
168.670340
20
58.655255
70
0
0
VERTEX
8
Layer 1
10
166.039591
20
61.083598
70
0
0
VERTEX
8
Layer 1
10
165.940901
20
61.173027
70
0
0
VERTEX
8
Layer 1
10
164.324861
20
62.275346
70
0
0
VERTEX
8
Layer 1
10
162.481214
20
62.928006
70
0
0
VERTEX
8
Layer 1
10
162.375116
20
63.139937
70
0
0
VERTEX
8
Layer 1
10
162.617408
20
64.582278
70
0
0
VERTEX
8
Layer 1
10
162.396547
20
66.053790
70
0
0
VERTEX
8
Layer 1
10
161.800177
20
67.928096
70
0
0
VERTEX
8
Layer 1
10
161.758109
20
68.054831
70
0
0
VERTEX
8
Layer 1
10
161.191789
20
69.157468
70
0
0
VERTEX
8
Layer 1
10
160.380723
20
70.030637
70
0
0
VERTEX
8
Layer 1
10
159.385754
20
70.650650
70
0
0
VERTEX
8
Layer 1
10
158.267730
20
70.993819
70
0
0
VERTEX
8
Layer 1
10
156.937340
20
71.617937
70
0
0
VERTEX
8
Layer 1
10
155.470029
20
71.834664
70
0
0
VERTEX
8
Layer 1
10
155.234021
20
71.834664
70
0
0
VERTEX
8
Layer 1
10
154.166363
20
71.729624
70
0
0
VERTEX
8
Layer 1
10
153.140376
20
71.419004
70
0
0
VERTEX
8
Layer 1
10
153.008349
20
71.362383
70
0
0
VERTEX
8
Layer 1
10
154.253741
20
64.468937
70
0
0
VERTEX
8
Layer 1
10
153.015030
20
67.630770
70
0
0
VERTEX
8
Layer 1
10
151.787828
20
70.776331
70
0
0
VERTEX
8
Layer 1
10
150.216998
20
70.776331
70
0
0
VERTEX
8
Layer 1
10
149.942758
20
70.429297
70
0
0
VERTEX
8
Layer 1
10
149.659538
20
69.511951
70
0
0
VERTEX
8
Layer 1
10
149.084914
20
66.708864
70
0
0
VERTEX
8
Layer 1
10
148.530629
20
63.852149
70
0
0
VERTEX
8
Layer 1
10
148.272834
20
62.867768
70
0
0
VERTEX
8
Layer 1
10
148.034188
20
62.426886
70
0
0
VERTEX
8
Layer 1
10
147.735952
20
62.864853
70
0
0
VERTEX
8
Layer 1
10
147.444698
20
63.840883
70
0
0
VERTEX
8
Layer 1
10
146.868899
20
66.664579
70
0
0
VERTEX
8
Layer 1
10
146.278316
20
69.412869
70
0
0
VERTEX
8
Layer 1
10
145.968583
20
70.294642
70
0
0
VERTEX
8
Layer 1
10
145.644475
20
70.600648
70
0
0
VERTEX
8
Layer 1
10
143.930506
20
70.374959
70
0
0
VERTEX
8
Layer 1
10
141.960450
20
69.856761
70
0
0
VERTEX
8
Layer 1
10
140.207856
20
68.880098
70
0
0
VERTEX
8
Layer 1
10
138.749992
20
67.501650
70
0
0
VERTEX
8
Layer 1
10
137.664122
20
65.778094
70
0
0
VERTEX
8
Layer 1
10
137.074102
20
64.511800
70
0
0
VERTEX
8
Layer 1
10
135.875839
20
65.333132
70
0
0
VERTEX
8
Layer 1
10
134.498387
20
65.713536
70
0
0
VERTEX
8
Layer 1
10
134.519372
20
64.636046
70
0
0
VERTEX
8
Layer 1
10
134.841485
20
62.082531
70
0
0
VERTEX
8
Layer 1
10
135.157546
20
59.516117
70
0
0
VERTEX
8
Layer 1
10
135.160373
20
58.399933
70
0
0
VERTEX
8
Layer 1
10
133.333692
20
66.600418
70
0
0
VERTEX
8
Layer 1
10
132.466103
20
68.042747
70
0
0
VERTEX
8
Layer 1
10
131.356588
20
69.236706
70
0
0
VERTEX
8
Layer 1
10
130.052790
20
70.166373
70
0
0
VERTEX
8
Layer 1
10
128.602353
20
70.815821
70
0
0
VERTEX
8
Layer 1
10
127.052921
20
71.169126
70
0
0
VERTEX
8
Layer 1
10
125.452137
20
71.210363
70
0
0
VERTEX
8
Layer 1
10
123.847645
20
70.923609
70
0
0
VERTEX
8
Layer 1
10
122.287088
20
70.292938
70
0
0
VERTEX
8
Layer 1
10
119.593368
20
68.863396
70
0
0
VERTEX
8
Layer 1
10
114.036067
20
42.660684
70
0
0
VERTEX
8
Layer 1
10
115.817008
20
55.525205
70
0
0
VERTEX
8
Layer 1
10
117.585448
20
68.383972
70
0
0
VERTEX
8
Layer 1
10
117.466650
20
68.581880
70
0
0
VERTEX
8
Layer 1
10
117.121402
20
70.211943
70
0
0
VERTEX
8
Layer 1
10
116.292960
20
71.661626
70
0
0
VERTEX
8
Layer 1
10
116.158022
20
71.829901
70
0
0
VERTEX
8
Layer 1
10
116.084468
20
71.920124
70
0
0
VERTEX
8
Layer 1
10
115.844032
20
72.068037
70
0
0
VERTEX
8
Layer 1
10
115.561124
20
72.010067
70
0
0
VERTEX
8
Layer 1
10
114.888458
20
71.383260
70
0
0
VERTEX
8
Layer 1
10
113.259681
20
68.833697
70
0
0
VERTEX
8
Layer 1
10
111.527171
20
65.980029
70
0
0
VERTEX
8
Layer 1
10
110.724839
20
64.973091
70
0
0
VERTEX
8
Layer 1
10
110.019961
20
64.530850
70
0
0
VERTEX
8
Layer 1
10
110.927746
20
74.028850
70
0
0
VERTEX
8
Layer 1
10
109.680191
20
74.573081
70
0
0
VERTEX
8
Layer 1
10
108.372833
20
74.740579
70
0
0
VERTEX
8
Layer 1
10
107.083185
20
74.546920
70
0
0
VERTEX
8
Layer 1
10
105.888762
20
74.007684
70
0
0
VERTEX
8
Layer 1
10
104.654818
20
73.646871
70
0
0
VERTEX
8
Layer 1
10
103.549286
20
73.014274
70
0
0
VERTEX
8
Layer 1
10
102.617934
20
72.139335
70
0
0
VERTEX
8
Layer 1
10
101.906524
20
71.051498
70
0
0
VERTEX
8
Layer 1
10
110.019961
20
68.054831
70
0
0
VERTEX
8
Layer 1
10
101.311741
20
69.738637
70
0
0
VERTEX
8
Layer 1
10
100.942317
20
68.470061
70
0
0
VERTEX
8
Layer 1
10
100.933652
20
67.189380
70
0
0
VERTEX
8
Layer 1
10
99.375159
20
67.122539
70
0
0
VERTEX
8
Layer 1
10
97.858139
20
66.739589
70
0
0
VERTEX
8
Layer 1
10
105.705936
20
63.293924
70
0
0
VERTEX
8
Layer 1
10
101.293749
20
40.430513
70
0
0
VERTEX
8
Layer 1
10
100.176167
20
44.310400
70
0
0
VERTEX
8
Layer 1
10
98.036336
20
52.962950
70
0
0
VERTEX
8
Layer 1
10
95.903648
20
61.603297
70
0
0
VERTEX
8
Layer 1
10
94.807497
20
65.446572
70
0
0
VERTEX
8
Layer 1
10
94.721875
20
65.294442
70
0
0
VERTEX
8
Layer 1
10
94.713215
20
64.765266
70
0
0
VERTEX
8
Layer 1
10
94.821785
20
63.073692
70
0
0
VERTEX
8
Layer 1
10
94.923211
20
61.367681
70
0
0
VERTEX
8
Layer 1
10
94.905621
20
60.820460
70
0
0
VERTEX
8
Layer 1
10
94.807497
20
60.643067
70
0
0
VERTEX
8
Layer 1
10
92.961237
20
66.197458
70
0
0
VERTEX
8
Layer 1
10
92.802752
20
66.247464
70
0
0
VERTEX
8
Layer 1
10
91.595261
20
66.437199
70
0
0
VERTEX
8
Layer 1
10
90.398685
20
66.312982
70
0
0
VERTEX
8
Layer 1
10
89.272851
20
65.888975
70
0
0
VERTEX
8
Layer 1
10
88.277589
20
65.179343
70
0
0
VERTEX
8
Layer 1
10
88.157997
20
65.063720
70
0
0
VERTEX
8
Layer 1
10
89.144263
20
62.161641
70
0
0
VERTEX
8
Layer 1
10
90.135491
20
59.255594
70
0
0
VERTEX
8
Layer 1
10
89.605606
20
59.442132
70
0
0
VERTEX
8
Layer 1
10
88.928136
20
59.982474
70
0
0
VERTEX
8
Layer 1
10
87.346951
20
61.607704
70
0
0
VERTEX
8
Layer 1
10
85.824950
20
63.097550
70
0
0
VERTEX
8
Layer 1
10
85.221460
20
63.468662
70
0
0
VERTEX
8
Layer 1
10
84.795147
20
63.418278
70
0
0
VERTEX
8
Layer 1
10
84.704660
20
63.329908
70
0
0
VERTEX
8
Layer 1
10
84.620258
20
63.246035
70
0
0
VERTEX
8
Layer 1
10
84.117021
20
62.653369
70
0
0
VERTEX
8
Layer 1
10
85.795105
20
58.750186
70
0
0
VERTEX
8
Layer 1
10
86.973057
20
55.350921
70
0
0
VERTEX
8
Layer 1
10
87.704655
20
52.420641
70
0
0
VERTEX
8
Layer 1
10
88.043673
20
49.924413
70
0
0
VERTEX
8
Layer 1
10
88.043887
20
47.827304
70
0
0
VERTEX
8
Layer 1
10
87.759073
20
46.094382
70
0
0
VERTEX
8
Layer 1
10
87.243007
20
44.690713
70
0
0
VERTEX
8
Layer 1
10
86.549465
20
43.581366
70
0
0
VERTEX
8
Layer 1
10
85.732222
20
42.731408
70
0
0
VERTEX
8
Layer 1
10
84.845053
20
42.105905
70
0
0
VERTEX
8
Layer 1
10
83.076044
20
41.388535
70
0
0
VERTEX
8
Layer 1
10
81.672643
20
41.149797
70
0
0
VERTEX
8
Layer 1
10
81.065056
20
41.110227
70
0
0
SEQEND
8
Layer 1
0
POLYLINE
8
Layer 1
62
13
70
0
10
0.000000
20
0.000000
66
1
0
VERTEX
8
Layer 1
10
183.415550
20
55.855967
70
0
0
VERTEX
8
Layer 1
10
185.237622
20
57.754052
70
0
0
VERTEX
8
Layer 1
10
188.147849
20
61.076917
70
0
0
VERTEX
8
Layer 1
10
191.103071
20
64.139730
70
0
0
VERTEX
8
Layer 1
10
192.271568
20
65.047107
70
0
0
VERTEX
8
Layer 1
10
192.721491
20
65.252649
70
0
0
VERTEX
8
Layer 1
10
193.060130
20
65.257659
70
0
0
VERTEX
8
Layer 1
10
193.308573
20
65.164261
70
0
0
VERTEX
8
Layer 1
10
195.582135
20
49.732987
70
0
0
VERTEX
8
Layer 1
10
195.704709
20
50.331853
70
0
0
VERTEX
8
Layer 1
10
195.730330
20
51.990513
70
0
0
VERTEX
8
Layer 1
10
195.614579
20
57.065475
70
0
0
VERTEX
8
Layer 1
10
195.482606
20
62.114393
70
0
0
VERTEX
8
Layer 1
10
195.487950
20
63.740496
70
0
0
VERTEX
8
Layer 1
10
195.582135
20
64.293783
70
0
0
VERTEX
8
Layer 1
10
197.249140
20
63.799840
70
0
0
VERTEX
8
Layer 1
10
198.007584
20
63.351070
70
0
0
VERTEX
8
Layer 1
10
198.692308
20
62.772696
70
0
0
VERTEX
8
Layer 1
10
198.714004
20
62.750735
70
0
0
VERTEX
8
Layer 1
10
199.384556
20
61.933108
70
0
0
VERTEX
8
Layer 1
10
199.876317
20
61.014277
70
0
0
VERTEX
8
Layer 1
10
201.354741
20
60.908279
70
0
0
VERTEX
8
Layer 1
10
202.749225
20
60.422471
70
0
0
VERTEX
8
Layer 1
10
203.980694
20
59.578981
70
0
0
VERTEX
8
Layer 1
10
204.970069
20
58.399933
70
0
0
VERTEX
8
Layer 1
10
206.064120
20
56.659506
70
0
0
VERTEX
8
Layer 1
10
206.845144
20
55.025867
70
0
0
VERTEX
8
Layer 1
10
207.229938
20
53.279888
70
0
0
VERTEX
8
Layer 1
10
207.211211
20
51.492088
70
0
0
VERTEX
8
Layer 1
10
206.781669
20
49.732987
70
0
0
VERTEX
8
Layer 1
10
206.354103
20
48.577818
70
0
0
VERTEX
8
Layer 1
10
205.429385
20
46.692664
70
0
0
VERTEX
8
Layer 1
10
200.123967
20
38.182352
70
0
0
VERTEX
8
Layer 1
10
199.146002
20
36.774704
70
0
0
VERTEX
8
Layer 1
10
198.032703
20
35.471434
70
0
0
VERTEX
8
Layer 1
10
193.150352
20
30.301747
70
0
0
VERTEX
8
Layer 1
10
191.846091
20
29.058273
70
0
0
VERTEX
8
Layer 1
10
190.418798
20
27.958071
70
0
0
VERTEX
8
Layer 1
10
187.601518
20
26.012857
70
0
0
VERTEX
8
Layer 1
10
185.448705
20
24.746893
70
0
0
VERTEX
8
Layer 1
10
183.135357
20
23.805970
70
0
0
VERTEX
8
Layer 1
10
181.728834
20
23.349829
70
0
0
VERTEX
8
Layer 1
10
179.456727
20
22.805251
70
0
0
VERTEX
8
Layer 1
10
177.127471
20
22.622225
70
0
0
VERTEX
8
Layer 1
10
175.444987
20
22.622225
70
0
0
VERTEX
8
Layer 1
10
174.251573
20
22.703155
70
0
0
VERTEX
8
Layer 1
10
173.085271
20
22.943032
70
0
0
VERTEX
8
Layer 1
10
171.961781
20
23.337493
70
0
0
VERTEX
8
Layer 1
10
170.896806
20
23.882170
70
0
0
VERTEX
8
Layer 1
10
169.667789
20
24.771297
70
0
0
VERTEX
8
Layer 1
10
168.615802
20
25.849113
70
0
0
VERTEX
8
Layer 1
10
167.762005
20
27.089895
70
0
0
VERTEX
8
Layer 1
10
167.127556
20
28.467922
70
0
0
VERTEX
8
Layer 1
10
166.519015
20
30.157814
70
0
0
VERTEX
8
Layer 1
10
166.513194
20
30.174747
70
0
0
VERTEX
8
Layer 1
10
166.060228
20
31.469087
70
0
0
VERTEX
8
Layer 1
10
165.792206
20
31.332298
70
0
0
VERTEX
8
Layer 1
10
164.351030
20
30.654023
70
0
0
VERTEX
8
Layer 1
10
162.842039
20
30.163767
70
0
0
VERTEX
8
Layer 1
10
161.283538
20
29.866194
70
0
0
VERTEX
8
Layer 1
10
159.693832
20
29.765967
70
0
0
VERTEX
8
Layer 1
10
131.017797
20
29.765967
70
0
0
VERTEX
8
Layer 1
10
129.117298
20
29.568852
70
0
0
VERTEX
8
Layer 1
10
125.330586
20
28.774839
70
0
0
VERTEX
8
Layer 1
10
123.346895
20
28.478439
70
0
0
VERTEX
8
Layer 1
10
121.348843
20
28.414807
70
0
0
VERTEX
8
Layer 1
10
119.356893
20
28.583446
70
0
0
VERTEX
8
Layer 1
10
117.391508
20
28.983859
70
0
0
VERTEX
8
Layer 1
10
114.036067
20
29.874181
70
0
0
VERTEX
8
Layer 1
10
108.346474
20
31.101581
70
0
0
VERTEX
8
Layer 1
10
105.705936
20
31.958830
70
0
0
VERTEX
8
Layer 1
10
102.951891
20
33.173796
70
0
0
VERTEX
8
Layer 1
10
101.622130
20
33.971348
70
0
0
VERTEX
8
Layer 1
10
100.537836
20
35.062389
70
0
0
VERTEX
8
Layer 1
10
99.370599
20
34.799414
70
0
0
VERTEX
8
Layer 1
10
98.180368
20
34.700671
70
0
0
VERTEX
8
Layer 1
10
96.984532
20
34.767970
70
0
0
VERTEX
8
Layer 1
10
95.800477
20
35.003122
70
0
0
VERTEX
8
Layer 1
10
94.496083
20
35.358722
70
0
0
VERTEX
8
Layer 1
10
91.885178
20
36.229200
70
0
0
VERTEX
8
Layer 1
10
91.840463
20
36.244810
70
0
0
VERTEX
8
Layer 1
10
91.408135
20
35.668019
70
0
0
VERTEX
8
Layer 1
10
90.354896
20
34.504106
70
0
0
VERTEX
8
Layer 1
10
89.117309
20
33.559591
70
0
0
VERTEX
8
Layer 1
10
87.728811
20
32.855432
70
0
0
VERTEX
8
Layer 1
10
86.222837
20
32.412590
70
0
0
VERTEX
8
Layer 1
10
81.875209
20
31.558516
70
0
0
VERTEX
8
Layer 1
10
80.909042
20
31.454671
70
0
0
VERTEX
8
Layer 1
10
79.962216
20
31.517382
70
0
0
VERTEX
8
Layer 1
10
79.052660
20
31.736524
70
0
0
VERTEX
8
Layer 1
10
78.198299
20
32.101970
70
0
0
VERTEX
8
Layer 1
10
77.417063
20
32.603593
70
0
0
VERTEX
8
Layer 1
10
76.726879
20
33.231268
70
0
0
VERTEX
8
Layer 1
10
76.145674
20
33.974867
70
0
0
VERTEX
8
Layer 1
10
75.691375
20
34.824264
70
0
0
VERTEX
8
Layer 1
10
74.899479
20
36.035525
70
0
0
VERTEX
8
Layer 1
10
74.709762
20
34.811096
70
0
0
VERTEX
8
Layer 1
10
74.323878
20
33.653807
70
0
0
VERTEX
8
Layer 1
10
73.757466
20
32.584512
70
0
0
VERTEX
8
Layer 1
10
73.026165
20
31.624067
70
0
0
VERTEX
8
Layer 1
10
72.145614
20
30.793325
70
0
0
VERTEX
8
Layer 1
10
71.131453
20
30.113141
70
0
0
VERTEX
8
Layer 1
10
69.999321
20
29.604369
70
0
0
VERTEX
8
Layer 1
10
68.764857
20
29.287865
70
0
0
VERTEX
8
Layer 1
10
65.301466
20
28.710545
70
0
0
VERTEX
8
Layer 1
10
64.363371
20
28.654704
70
0
0
VERTEX
8
Layer 1
10
63.467550
20
28.792061
70
0
0
VERTEX
8
Layer 1
10
62.635985
20
29.103981
70
0
0
VERTEX
8
Layer 1
10
61.890660
20
29.571829
70
0
0
VERTEX
8
Layer 1
10
61.253558
20
30.176970
70
0
0
VERTEX
8
Layer 1
10
60.746661
20
30.900771
70
0
0
VERTEX
8
Layer 1
10
60.391953
20
31.724597
70
0
0
VERTEX
8
Layer 1
10
60.211418
20
32.629813
70
0
0
VERTEX
8
Layer 1
10
54.980877
20
63.764353
70
0
0
VERTEX
8
Layer 1
10
54.857659
20
65.276788
70
0
0
VERTEX
8
Layer 1
10
54.990699
20
66.777589
70
0
0
VERTEX
8
Layer 1
10
55.374415
20
68.234586
70
0
0
VERTEX
8
Layer 1
10
56.003225
20
69.615606
70
0
0
VERTEX
8
Layer 1
10
56.138956
20
69.856641
70
0
0
VERTEX
8
Layer 1
10
56.197429
20
69.959035
70
0
0
VERTEX
8
Layer 1
10
57.274811
20
71.354445
70
0
0
VERTEX
8
Layer 1
10
57.377734
20
71.455251
70
0
0
VERTEX
8
Layer 1
10
58.230500
20
72.152125
70
0
0
VERTEX
8
Layer 1
10
59.164963
20
72.695476
70
0
0
VERTEX
8
Layer 1
10
60.161444
20
73.082545
70
0
0
VERTEX
8
Layer 1
10
61.200264
20
73.310574
70
0
0
VERTEX
8
Layer 1
10
62.261742
20
73.376801
70
0
0
VERTEX
8
Layer 1
10
63.326201
20
73.278468
70
0
0
VERTEX
8
Layer 1
10
64.373959
20
73.012815
70
0
0
VERTEX
8
Layer 1
10
65.385338
20
72.577083
70
0
0
VERTEX
8
Layer 1
10
65.512074
20
72.508027
70
0
0
VERTEX
8
Layer 1
10
68.854551
20
70.651184
70
0
0
VERTEX
8
Layer 1
10
70.064125
20
71.230819
70
0
0
VERTEX
8
Layer 1
10
71.437410
20
71.437789
70
0
0
VERTEX
8
Layer 1
10
71.751999
20
71.437789
70
0
0
VERTEX
8
Layer 1
10
73.357158
20
71.170031
70
0
0
VERTEX
8
Layer 1
10
74.787295
20
70.396655
70
0
0
VERTEX
8
Layer 1
10
74.870639
20
70.330509
70
0
0
VERTEX
8
Layer 1
10
75.136016
20
70.114874
70
0
0
VERTEX
8
Layer 1
10
75.585013
20
70.114874
70
0
0
VERTEX
8
Layer 1
10
77.267563
20
69.835925
70
0
0
VERTEX
8
Layer 1
10
78.731434
20
69.055451
70
0
0
VERTEX
8
Layer 1
10
79.873639
20
67.858010
70
0
0
VERTEX
8
Layer 1
10
80.591188
20
66.328162
70
0
0
VERTEX
8
Layer 1
10
81.211933
20
64.947370
70
0
0
VERTEX
8
Layer 1
10
81.324203
20
64.176036
70
0
0
VERTEX
8
Layer 1
10
81.286777
20
63.370918
70
0
0
VERTEX
8
Layer 1
10
81.226452
20
62.950760
70
0
0
VERTEX
8
Layer 1
10
82.405963
20
62.015195
70
0
0
VERTEX
8
Layer 1
10
82.758652
20
61.983974
70
0
0
VERTEX
8
Layer 1
10
83.429634
20
62.345394
70
0
0
VERTEX
8
Layer 1
10
81.065056
20
41.110227
70
0
0
SEQEND
8
Layer 1
0
POLYLINE
8
Layer 1
62
13
70
0
10
0.000000
20
0.000000
66
1
0
VERTEX
8
Layer 1
10
183.415550
20
55.855967
70
0
0
VERTEX
8
Layer 1
10
184.227068
20
54.787250
70
0
0
VERTEX
8
Layer 1
10
185.243872
20
54.043321
70
0
0
VERTEX
8
Layer 1
10
186.392867
20
53.620929
70
0
0
VERTEX
8
Layer 1
10
187.600956
20
53.516822
70
0
0
VERTEX
8
Layer 1
10
188.795042
20
53.727746
70
0
0
VERTEX
8
Layer 1
10
189.902030
20
54.250448
70
0
0
VERTEX
8
Layer 1
10
190.848823
20
55.081678
70
0
0
VERTEX
8
Layer 1
10
191.562325
20
56.218181
70
0
0
VERTEX
8
Layer 1
10
191.779283
20
56.817726
70
0
0
VERTEX
8
Layer 1
10
190.103134
20
53.651461
70
0
0
VERTEX
8
Layer 1
10
186.225223
20
46.799622
70
0
0
VERTEX
8
Layer 1
10
182.351182
20
39.954628
70
0
0
VERTEX
8
Layer 1
10
180.686641
20
36.808901
70
0
0
VERTEX
8
Layer 1
10
181.285209
20
37.384079
70
0
0
VERTEX
8
Layer 1
10
182.725886
20
39.349452
70
0
0
VERTEX
8
Layer 1
10
187.029721
20
45.607278
70
0
0
VERTEX
8
Layer 1
10
191.390458
20
51.895366
70
0
0
VERTEX
8
Layer 1
10
192.902262
20
53.898566
70
0
0
VERTEX
8
Layer 1
10
193.600408
20
54.526702
70
0
0
VERTEX
8
Layer 1
10
194.038105
20
53.817460
70
0
0
VERTEX
8
Layer 1
10
194.593194
20
53.209306
70
0
0
VERTEX
8
Layer 1
10
195.977124
20
52.344719
70
0
0
VERTEX
8
Layer 1
10
196.766756
20
52.112514
70
0
0
VERTEX
8
Layer 1
10
197.595359
20
52.029853
70
0
0
VERTEX
8
Layer 1
10
198.443329
20
52.108850
70
0
0
VERTEX
8
Layer 1
10
199.291059
20
52.361619
70
0
0
VERTEX
8
Layer 1
10
198.910589
20
51.334508
70
0
0
VERTEX
8
Layer 1
10
198.693366
20
50.891861
70
0
0
VERTEX
8
Layer 1
10
193.388213
20
42.381284
70
0
0
VERTEX
8
Layer 1
10
192.261883
20
40.921580
70
0
0
VERTEX
8
Layer 1
10
187.379533
20
35.751892
70
0
0
VERTEX
8
Layer 1
10
185.908716
20
34.489831
70
0
0
VERTEX
8
Layer 1
10
183.091436
20
32.544617
70
0
0
VERTEX
8
Layer 1
10
181.932397
20
31.862985
70
0
0
VERTEX
8
Layer 1
10
180.686641
20
31.356375
70
0
0
VERTEX
8
Layer 1
10
179.280118
20
30.899969
70
0
0
VERTEX
8
Layer 1
10
178.217090
20
30.645308
70
0
0
VERTEX
8
Layer 1
10
177.127471
20
30.559715
70
0
0
VERTEX
8
Layer 1
10
175.444987
20
30.559715
70
0
0
VERTEX
8
Layer 1
10
174.980644
20
30.688303
70
0
0
VERTEX
8
Layer 1
10
174.915821
20
30.730901
70
0
0
VERTEX
8
Layer 1
10
174.595940
20
31.156350
70
0
0
VERTEX
8
Layer 1
10
173.996925
20
32.820048
70
0
0
VERTEX
8
Layer 1
10
172.662103
20
36.634012
70
0
0
VERTEX
8
Layer 1
10
172.609980
20
36.776622
70
0
0
VERTEX
8
Layer 1
10
172.097467
20
37.783281
70
0
0
VERTEX
8
Layer 1
10
171.408149
20
38.630266
70
0
0
VERTEX
8
Layer 1
10
170.574921
20
39.304921
70
0
0
VERTEX
8
Layer 1
10
169.630677
20
39.794588
70
0
0
VERTEX
8
Layer 1
10
168.608310
20
40.086612
70
0
0
VERTEX
8
Layer 1
10
167.540715
20
40.168337
70
0
0
VERTEX
8
Layer 1
10
166.460786
20
40.027104
70
0
0
VERTEX
8
Layer 1
10
165.401417
20
39.650258
70
0
0
VERTEX
8
Layer 1
10
171.762521
20
45.935957
70
0
0
VERTEX
8
Layer 1
10
170.020168
20
44.690750
70
0
0
VERTEX
8
Layer 1
10
166.843857
20
42.159200
70
0
0
VERTEX
8
Layer 1
10
161.966865
20
38.287391
70
0
0
VERTEX
8
Layer 1
10
160.867258
20
37.851755
70
0
0
VERTEX
8
Layer 1
10
159.693832
20
37.703457
70
0
0
VERTEX
8
Layer 1
10
131.017797
20
37.703457
70
0
0
VERTEX
8
Layer 1
10
129.243537
20
37.611646
70
0
0
VERTEX
8
Layer 1
10
127.488525
20
37.337274
70
0
0
VERTEX
8
Layer 1
10
123.701813
20
36.543525
70
0
0
VERTEX
8
Layer 1
10
121.557698
20
36.349519
70
0
0
VERTEX
8
Layer 1
10
119.426681
20
36.655972
70
0
0
VERTEX
8
Layer 1
10
115.979164
20
37.570636
70
0
0
VERTEX
8
Layer 1
10
115.889206
20
37.594713
70
0
0
VERTEX
8
Layer 1
10
110.019961
20
38.860478
70
0
0
VERTEX
8
Layer 1
10
108.909507
20
39.220840
70
0
0
VERTEX
8
Layer 1
10
106.726961
20
40.183922
70
0
0
VERTEX
8
Layer 1
10
106.100331
20
41.110550
70
0
0
VERTEX
8
Layer 1
10
105.334701
20
41.894654
70
0
0
VERTEX
8
Layer 1
10
104.453940
20
42.525967
70
0
0
VERTEX
8
Layer 1
10
103.481917
20
42.994224
70
0
0
VERTEX
8
Layer 1
10
102.442500
20
43.289158
70
0
0
VERTEX
8
Layer 1
10
101.359556
20
43.400503
70
0
0
VERTEX
8
Layer 1
10
100.256955
20
43.317994
70
0
0
VERTEX
8
Layer 1
10
99.158565
20
43.031364
70
0
0
VERTEX
8
Layer 1
10
99.009869
20
42.975537
70
0
0
VERTEX
8
Layer 1
10
98.706128
20
42.857533
70
0
0
VERTEX
8
Layer 1
10
98.534413
20
42.790858
70
0
0
VERTEX
8
Layer 1
10
98.369843
20
42.708309
70
0
0
VERTEX
8
Layer 1
10
97.889095
20
42.660684
70
0
0
VERTEX
8
Layer 1
10
96.797426
20
42.958604
70
0
0
VERTEX
8
Layer 1
10
94.557995
20
43.704993
70
0
0
VERTEX
8
Layer 1
10
93.498988
20
44.198750
70
0
0
VERTEX
8
Layer 1
10
92.395199
20
44.485608
70
0
0
VERTEX
8
Layer 1
10
91.273656
20
44.570599
70
0
0
VERTEX
8
Layer 1
10
90.161387
20
44.458757
70
0
0
VERTEX
8
Layer 1
10
89.085419
20
44.155112
70
0
0
VERTEX
8
Layer 1
10
88.072781
20
43.664698
70
0
0
VERTEX
8
Layer 1
10
87.150500
20
42.992546
70
0
0
VERTEX
8
Layer 1
10
86.345604
20
42.143688
70
0
0
VERTEX
8
Layer 1
10
86.250883
20
42.020922
70
0
0
VERTEX
8
Layer 1
10
85.058143
20
40.430513
70
0
0
VERTEX
8
Layer 1
10
84.693018
20
40.201120
70
0
0
VERTEX
8
Layer 1
10
82.004326
20
39.673277
70
0
0
VERTEX
8
Layer 1
10
81.065056
20
41.110227
70
0
0
SEQEND
8
Layer 1
0
POLYLINE
8
Layer 1
62
13
70
0
10
0.000000
20
0.000000
66
1
0
VERTEX
8
Layer 1
10
183.415550
20
55.855967
70
0
0
VERTEX
8
Layer 1
10
183.390944
20
55.899888
70
0
0
VERTEX
8
Layer 1
10
183.248598
20
56.120285
70
0
0
VERTEX
8
Layer 1
10
182.889824
20
53.189764
70
0
0
VERTEX
8
Layer 1
10
182.698887
20
52.312286
70
0
0
VERTEX
8
Layer 1
10
182.359083
20
51.505470
70
0
0
VERTEX
8
Layer 1
10
181.886542
20
50.783598
70
0
0
VERTEX
8
Layer 1
10
181.297398
20
50.160950
70
0
0
VERTEX
8
Layer 1
10
180.607782
20
49.651809
70
0
0
VERTEX
8
Layer 1
10
179.833828
20
49.270455
70
0
0
VERTEX
8
Layer 1
10
178.991667
20
49.031169
70
0
0
VERTEX
8
Layer 1
10
178.097432
20
48.948234
70
0
0
VERTEX
8
Layer 1
10
177.174471
20
49.037279
70
0
0
VERTEX
8
Layer 1
10
176.296581
20
49.296855
70
0
0
VERTEX
8
Layer 1
10
175.486209
20
49.715628
70
0
0
VERTEX
8
Layer 1
10
174.765803
20
50.282261
70
0
0
VERTEX
8
Layer 1
10
173.224276
20
50.331474
70
0
0
VERTEX
8
Layer 1
10
171.762521
20
50.871223
70
0
0
VERTEX
8
Layer 1
10
171.082798
20
50.291114
70
0
0
VERTEX
8
Layer 1
10
170.309650
20
49.850342
70
0
0
VERTEX
8
Layer 1
10
169.468966
20
49.561989
70
0
0
VERTEX
8
Layer 1
10
168.586632
20
49.439135
70
0
0
VERTEX
8
Layer 1
10
167.688535
20
49.494862
70
0
0
VERTEX
8
Layer 1
10
166.800560
20
49.742252
70
0
0
VERTEX
8
Layer 1
10
165.948596
20
50.194385
70
0
0
VERTEX
8
Layer 1
10
165.158529
20
50.864344
70
0
0
VERTEX
8
Layer 1
10
163.243213
20
52.862475
70
0
0
VERTEX
8
Layer 1
10
160.726500
20
55.185778
70
0
0
VERTEX
8
Layer 1
10
159.087127
20
55.720600
70
0
0
VERTEX
8
Layer 1
10
157.627240
20
56.598916
70
0
0
VERTEX
8
Layer 1
10
156.399625
20
57.781040
70
0
0
VERTEX
8
Layer 1
10
155.457065
20
59.227284
70
0
0
VERTEX
8
Layer 1
10
154.885565
20
60.369753
70
0
0
VERTEX
8
Layer 1
10
154.427969
20
61.612003
70
0
0
VERTEX
8
Layer 1
10
154.253741
20
62.923508
70
0
0
VERTEX
8
Layer 1
10
153.402048
20
62.838842
70
0
0
VERTEX
8
Layer 1
10
153.168422
20
62.838842
70
0
0
VERTEX
8
Layer 1
10
155.910990
20
45.895641
70
0
0
VERTEX
8
Layer 1
10
156.364545
20
42.964992
70
0
0
VERTEX
8
Layer 1
10
156.388422
20
42.741795
70
0
0
VERTEX
8
Layer 1
10
156.367921
20
42.771286
70
0
0
VERTEX
8
Layer 1
10
156.176644
20
43.686137
70
0
0
VERTEX
8
Layer 1
10
152.779220
20
62.343278
70
0
0
VERTEX
8
Layer 1
10
141.976296
20
39.204436
70
0
0
VERTEX
8
Layer 1
10
152.271485
20
61.785537
70
0
0
VERTEX
8
Layer 1
10
151.436808
20
61.064026
70
0
0
VERTEX
8
Layer 1
10
150.497001
20
60.585152
70
0
0
VERTEX
8
Layer 1
10
149.495147
20
60.343752
70
0
0
VERTEX
8
Layer 1
10
148.474322
20
60.334663
70
0
0
VERTEX
8
Layer 1
10
147.477608
20
60.552722
70
0
0
VERTEX
8
Layer 1
10
146.548084
20
60.992767
70
0
0
VERTEX
8
Layer 1
10
145.728828
20
61.649637
70
0
0
VERTEX
8
Layer 1
10
145.062921
20
62.518167
70
0
0
VERTEX
8
Layer 1
10
144.966084
20
62.505202
70
0
0
VERTEX
8
Layer 1
10
144.859193
20
62.426886
70
0
0
VERTEX
8
Layer 1
10
141.976296
20
56.237760
70
0
0
VERTEX
8
Layer 1
10
141.286165
20
55.142692
70
0
0
VERTEX
8
Layer 1
10
140.387281
20
54.298743
70
0
0
VERTEX
8
Layer 1
10
139.335210
20
53.714369
70
0
0
VERTEX
8
Layer 1
10
138.185516
20
53.398024
70
0
0
VERTEX
8
Layer 1
10
136.993767
20
53.358164
70
0
0
VERTEX
8
Layer 1
10
135.815526
20
53.603245
70
0
0
VERTEX
8
Layer 1
10
134.706361
20
54.141722
70
0
0
VERTEX
8
Layer 1
10
133.721836
20
54.982049
70
0
0
VERTEX
8
Layer 1
10
132.288590
20
56.558435
70
0
0
VERTEX
8
Layer 1
10
132.288325
20
56.558699
70
0
0
VERTEX
8
Layer 1
10
132.118474
20
56.046554
70
0
0
VERTEX
8
Layer 1
10
131.934106
20
54.409397
70
0
0
VERTEX
8
Layer 1
10
131.557216
20
49.264311
70
0
0
VERTEX
8
Layer 1
10
131.228447
20
44.131976
70
0
0
VERTEX
8
Layer 1
10
131.104230
20
42.510755
70
0
0
VERTEX
8
Layer 1
10
131.018591
20
42.020922
70
0
0
VERTEX
8
Layer 1
10
130.854062
20
44.660100
70
0
0
VERTEX
8
Layer 1
10
130.767965
20
50.325422
70
0
0
VERTEX
8
Layer 1
10
130.688714
20
56.005279
70
0
0
VERTEX
8
Layer 1
10
130.544723
20
58.688063
70
0
0
VERTEX
8
Layer 1
10
130.488896
20
58.738334
70
0
0
VERTEX
8
Layer 1
10
129.366456
20
59.132546
70
0
0
VERTEX
8
Layer 1
10
128.366577
20
59.763990
70
0
0
VERTEX
8
Layer 1
10
127.528671
20
60.607762
70
0
0
VERTEX
8
Layer 1
10
126.892155
20
61.638958
70
0
0
VERTEX
8
Layer 1
10
123.701813
20
42.020922
70
0
0
VERTEX
8
Layer 1
10
126.122747
20
63.267731
70
0
0
VERTEX
8
Layer 1
10
126.085970
20
63.287839
70
0
0
VERTEX
8
Layer 1
10
126.044960
20
63.293924
70
0
0
VERTEX
8
Layer 1
10
126.007654
20
63.281224
70
0
0
VERTEX
8
Layer 1
10
123.303615
20
61.846655
70
0
0
VERTEX
8
Layer 1
10
116.443507
20
58.230864
70
0
0
VERTEX
8
Layer 1
10
115.104790
20
57.722514
70
0
0
VERTEX
8
Layer 1
10
113.763137
20
57.568456
70
0
0
VERTEX
8
Layer 1
10
112.464923
20
57.735630
70
0
0
VERTEX
8
Layer 1
10
111.256523
20
58.190978
70
0
0
VERTEX
8
Layer 1
10
110.184313
20
58.901442
70
0
0
VERTEX
8
Layer 1
10
109.294669
20
59.833964
70
0
0
VERTEX
8
Layer 1
10
108.633966
20
60.955485
70
0
0
VERTEX
8
Layer 1
10
108.248578
20
62.232946
70
0
0
VERTEX
8
Layer 1
10
107.661888
20
61.395112
70
0
0
VERTEX
8
Layer 1
10
106.962717
20
60.667115
70
0
0
VERTEX
8
Layer 1
10
106.166926
20
60.057840
70
0
0
VERTEX
8
Layer 1
10
105.290375
20
59.576169
70
0
0
VERTEX
8
Layer 1
10
104.348922
20
59.230986
70
0
0
VERTEX
8
Layer 1
10
103.358427
20
59.031174
70
0
0
VERTEX
8
Layer 1
10
102.334750
20
58.985615
70
0
0
VERTEX
8
Layer 1
10
101.293749
20
59.103194
70
0
0
VERTEX
8
Layer 1
10
100.507409
20
59.255594
70
0
0
VERTEX
8
Layer 1
10
99.329221
20
58.802363
70
0
0
VERTEX
8
Layer 1
10
98.644054
20
58.107890
70
0
0
VERTEX
8
Layer 1
10
97.861922
20
57.553610
70
0
0
VERTEX
8
Layer 1
10
97.004254
20
57.145448
70
0
0
VERTEX
8
Layer 1
10
96.092478
20
56.889329
70
0
0
VERTEX
8
Layer 1
10
95.148021
20
56.791178
70
0
0
VERTEX
8
Layer 1
10
94.192313
20
56.856922
70
0
0
VERTEX
8
Layer 1
10
93.246781
20
57.092484
70
0
0
VERTEX
8
Layer 1
10
92.332852
20
57.503790
70
0
0
VERTEX
8
Layer 1
10
92.961237
20
50.282261
70
0
0
VERTEX
8
Layer 1
10
92.687304
20
50.461683
70
0
0
VERTEX
8
Layer 1
10
92.358757
20
51.164195
70
0
0
VERTEX
8
Layer 1
10
91.601743
20
53.461855
70
0
0
VERTEX
8
Layer 1
10
90.818040
20
55.821972
70
0
0
VERTEX
8
Layer 1
10
90.456131
20
56.602557
70
0
0
VERTEX
8
Layer 1
10
90.135491
20
56.891280
70
0
0
VERTEX
8
Layer 1
10
89.436198
20
56.164409
70
0
0
VERTEX
8
Layer 1
10
88.598197
20
55.596907
70
0
0
VERTEX
8
Layer 1
10
87.646790
20
55.214101
70
0
0
VERTEX
8
Layer 1
10
86.607276
20
55.041316
70
0
0
VERTEX
8
Layer 1
10
86.521816
20
54.995014
70
0
0
VERTEX
8
Layer 1
10
85.404908
20
54.496235
70
0
0
VERTEX
8
Layer 1
10
84.245910
20
54.171938
70
0
0
VERTEX
8
Layer 1
10
83.063850
20
54.020442
70
0
0
VERTEX
8
Layer 1
10
81.877756
20
54.040068
70
0
0
VERTEX
8
Layer 1
10
80.706656
20
54.229134
70
0
0
VERTEX
8
Layer 1
10
79.569579
20
54.585960
70
0
0
VERTEX
8
Layer 1
10
78.485553
20
55.108866
70
0
0
VERTEX
8
Layer 1
10
77.473607
20
55.796171
70
0
0
VERTEX
8
Layer 1
10
75.850390
20
57.083368
70
0
0
VERTEX
8
Layer 1
10
75.753288
20
57.160361
70
0
0
VERTEX
8
Layer 1
10
75.324399
20
46.751137
70
0
0
SEQEND
8
Layer 1
0
POLYLINE
8
Layer 1
62
13
70
0
10
0.000000
20
0.000000
66
1
0
VERTEX
8
Layer 1
10
81.065056
20
41.110227
70
0
0
VERTEX
8
Layer 1
10
80.019193
20
42.542514
70
0
0
VERTEX
8
Layer 1
10
78.831447
20
43.859509
70
0
0
VERTEX
8
Layer 1
10
77.965466
20
44.725489
70
0
0
VERTEX
8
Layer 1
10
76.510260
20
45.935957
70
0
0
VERTEX
8
Layer 1
10
75.324399
20
46.751137
70
0
0
SEQEND
8
Layer 1
0
POLYLINE
8
Layer 1
62
13
70
1
10
0.000000
20
0.000000
66
1
0
VERTEX
8
Layer 1
10
75.324399
20
46.751137
70
0
0
VERTEX
8
Layer 1
10
75.234705
20
46.811991
70
0
0
VERTEX
8
Layer 1
10
73.780689
20
47.500370
70
0
0
VERTEX
8
Layer 1
10
72.192530
20
47.756552
70
0
0
VERTEX
8
Layer 1
10
72.084315
20
47.757611
70
0
0
VERTEX
8
Layer 1
10
71.627068
20
47.662900
70
0
0
VERTEX
8
Layer 1
10
71.291609
20
47.392618
70
0
0
VERTEX
8
Layer 1
10
70.931548
20
46.408452
70
0
0
VERTEX
8
Layer 1
10
70.895120
20
44.971328
70
0
0
VERTEX
8
Layer 1
10
71.073311
20
43.247463
70
0
0
VERTEX
8
Layer 1
10
71.637497
20
39.604370
70
0
0
VERTEX
8
Layer 1
10
71.805465
20
38.017574
70
0
0
VERTEX
8
Layer 1
10
71.751999
20
36.808901
70
0
0
VERTEX
8
Layer 1
10
68.764857
20
56.817726
70
0
0
VERTEX
8
Layer 1
10
66.507170
20
62.875354
70
0
0
VERTEX
8
Layer 1
10
67.809084
20
62.354721
70
0
0
VERTEX
8
Layer 1
10
69.200096
20
62.177384
70
0
0
VERTEX
8
Layer 1
10
70.114495
20
62.177384
70
0
0
VERTEX
8
Layer 1
10
71.459693
20
62.695901
70
0
0
VERTEX
8
Layer 1
10
73.827388
20
63.854774
70
0
0
VERTEX
8
Layer 1
10
77.473607
20
65.713536
70
0
0
VERTEX
8
Layer 1
10
75.157369
20
65.659026
70
0
0
VERTEX
8
Layer 1
10
73.632978
20
65.302758
70
0
0
VERTEX
8
Layer 1
10
72.757910
20
64.738410
70
0
0
VERTEX
8
Layer 1
10
72.389644
20
64.059661
70
0
0
VERTEX
8
Layer 1
10
72.385660
20
63.360186
70
0
0
VERTEX
8
Layer 1
10
72.603436
20
62.733666
70
0
0
VERTEX
8
Layer 1
10
73.134181
20
62.074197
70
0
0
VERTEX
8
Layer 1
10
73.300860
20
59.157322
70
0
0
VERTEX
8
Layer 1
10
73.771297
20
54.219885
70
0
0
VERTEX
8
Layer 1
10
74.470730
20
49.378839
70
0
0
VERTEX
8
Layer 1
10
74.882958
20
47.656010
70
0
0
VERTEX
8
Layer 1
10
75.324399
20
46.751137
70
0
0
VERTEX
8
Layer 1
10
75.324399
20
46.751137
70
0
0
SEQEND
8
Layer 1
0
POLYLINE
8
Layer 1
62
13
70
0
10
0.000000
20
0.000000
66
1
0
VERTEX
8
Layer 1
10
135.449563
20
55.433428
70
0
0
VERTEX
8
Layer 1
10
135.491631
20
55.435545
70
0
0
SEQEND
8
Layer 1
0
POLYLINE
8
Layer 1
62
13
70
0
10
0.000000
20
0.000000
66
1
0
VERTEX
8
Layer 1
10
135.606460
20
55.442159
70
0
0
VERTEX
8
Layer 1
10
135.621806
20
55.443217
70
0
0
SEQEND
8
Layer 1
0
POLYLINE
8
Layer 1
62
13
70
0
10
0.000000
20
0.000000
66
1
0
VERTEX
8
Layer 1
10
135.759389
20
55.456182
70
0
0
VERTEX
8
Layer 1
10
135.765475
20
55.456711
70
0
0
SEQEND
8
Layer 1
0
POLYLINE
8
Layer 1
62
13
70
0
10
0.000000
20
0.000000
66
1
0
VERTEX
8
Layer 1
10
149.529876
20
61.387339
70
0
0
VERTEX
8
Layer 1
10
141.976296
20
42.660684
70
0
0
SEQEND
8
Layer 1
0
POLYLINE
8
Layer 1
62
13
70
0
10
0.000000
20
0.000000
66
1
0
VERTEX
8
Layer 1
10
135.036019
20
63.359541
70
0
0
VERTEX
8
Layer 1
10
135.033903
20
63.359276
70
0
0
SEQEND
8
Layer 1
0
POLYLINE
8
Layer 1
62
13
70
0
10
0.000000
20
0.000000
66
1
0
VERTEX
8
Layer 1
10
135.300867
20
63.368008
70
0
0
VERTEX
8
Layer 1
10
135.160373
20
63.365362
70
0
0
SEQEND
8
Layer 1
0
POLYLINE
8
Layer 1
62
13
70
0
10
0.000000
20
0.000000
66
1
0
VERTEX
8
Layer 1
10
131.018591
20
64.530850
70
0
0
VERTEX
8
Layer 1
10
130.954827
20
64.468937
70
0
0
SEQEND
8
Layer 1
0
POLYLINE
8
Layer 1
62
13
70
0
10
0.000000
20
0.000000
66
1
0
VERTEX
8
Layer 1
10
66.808530
20
66.902307
70
0
0
VERTEX
8
Layer 1
10
66.807737
20
66.853359
70
0
0
SEQEND
8
Layer 1
0
POLYLINE
8
Layer 1
62
13
70
1
10
0.000000
20
0.000000
66
1
0
VERTEX
8
Layer 1
10
68.127212
20
33.173796
70
0
0
VERTEX
8
Layer 1
10
73.134181
20
38.182352
70
0
0
VERTEX
8
Layer 1
10
68.127212
20
33.173796
70
0
0
VERTEX
8
Layer 1
10
68.127212
20
33.173796
70
0
0
SEQEND
8
Layer 1
0
POLYLINE
8
Layer 1
62
13
70
1
10
0.000000
20
0.000000
66
1
0
VERTEX
8
Layer 1
10
173.035165
20
53.926628
70
0
0
VERTEX
8
Layer 1
10
173.037282
20
54.038282
70
0
0
VERTEX
8
Layer 1
10
173.035165
20
53.926628
70
0
0
VERTEX
8
Layer 1
10
173.035165
20
53.926628
70
0
0
SEQEND
8
Layer 1
0
POLYLINE
8
Layer 1
62
13
70
1
10
0.000000
20
0.000000
66
1
0
VERTEX
8
Layer 1
10
197.511210
20
60.643067
70
0
0
VERTEX
8
Layer 1
10
197.508299
20
60.781709
70
0
0
VERTEX
8
Layer 1
10
197.511210
20
60.643067
70
0
0
VERTEX
8
Layer 1
10
197.511210
20
60.643067
70
0
0
SEQEND
8
Layer 1
0
POLYLINE
8
Layer 1
62
13
70
1
10
0.000000
20
0.000000
66
1
0
VERTEX
8
Layer 1
10
161.241114
20
61.305318
70
0
0
VERTEX
8
Layer 1
10
164.063685
20
40.921580
70
0
0
VERTEX
8
Layer 1
10
161.319695
20
61.386545
70
0
0
VERTEX
8
Layer 1
10
161.241114
20
61.305318
70
0
0
VERTEX
8
Layer 1
10
161.241114
20
61.305318
70
0
0
SEQEND
8
Layer 1
0
POLYLINE
8
Layer 1
62
7
70
1
10
0.000000
20
0.000000
66
1
0
VERTEX
8
Layer 1
10
173.374890
20
26.938897
70
0
0
VERTEX
8
Layer 1
10
172.120237
20
27.477324
70
0
0
VERTEX
8
Layer 1
10
171.487355
20
28.093273
70
0
0
VERTEX
8
Layer 1
10
170.619787
20
30.055949
70
0
0
VERTEX
8
Layer 1
10
170.432727
20
30.748099
70
0
0
VERTEX
8
Layer 1
10
170.396214
20
31.349760
70
0
0
VERTEX
8
Layer 1
10
170.637514
20
31.777591
70
0
0
VERTEX
8
Layer 1
10
171.023276
20
32.092180
70
0
0
VERTEX
8
Layer 1
10
172.206491
20
32.855767
70
0
0
VERTEX
8
Layer 1
10
173.333615
20
33.412449
70
0
0
VERTEX
8
Layer 1
10
173.827856
20
33.574110
70
0
0
VERTEX
8
Layer 1
10
174.119956
20
33.544212
70
0
0
VERTEX
8
Layer 1
10
174.456770
20
33.403189
70
0
0
VERTEX
8
Layer 1
10
175.143098
20
33.167181
70
0
0
VERTEX
8
Layer 1
10
176.855744
20
32.979195
70
0
0
VERTEX
8
Layer 1
10
178.778733
20
33.288889
70
0
0
VERTEX
8
Layer 1
10
179.820677
20
33.682444
70
0
0
VERTEX
8
Layer 1
10
180.918482
20
34.304326
70
0
0
VERTEX
8
Layer 1
10
183.281671
20
36.233169
70
0
0
VERTEX
8
Layer 1
10
182.014583
20
38.520125
70
0
0
VERTEX
8
Layer 1
10
180.880051
20
41.202567
70
0
0
VERTEX
8
Layer 1
10
179.949447
20
44.175024
70
0
0
VERTEX
8
Layer 1
10
179.235139
20
47.298294
70
0
0
VERTEX
8
Layer 1
10
178.767191
20
50.477888
70
0
0
VERTEX
8
Layer 1
10
178.564156
20
53.573145
70
0
0
VERTEX
8
Layer 1
10
178.691123
20
56.455314
70
0
0
VERTEX
8
Layer 1
10
179.166347
20
59.008473
70
0
0
VERTEX
8
Layer 1
10
179.353705
20
59.444638
70
0
0
VERTEX
8
Layer 1
10
179.641274
20
59.742691
70
0
0
VERTEX
8
Layer 1
10
181.303549
20
60.727568
70
0
0
VERTEX
8
Layer 1
10
183.435923
20
61.646366
70
0
0
VERTEX
8
Layer 1
10
184.127278
20
61.705103
70
0
0
VERTEX
8
Layer 1
10
184.693751
20
61.304260
70
0
0
VERTEX
8
Layer 1
10
186.100274
20
59.392648
70
0
0
VERTEX
8
Layer 1
10
187.002502
20
57.741650
70
0
0
VERTEX
8
Layer 1
10
187.096330
20
57.327545
70
0
0
VERTEX
8
Layer 1
10
187.027637
20
56.821959
70
0
0
VERTEX
8
Layer 1
10
187.052508
20
56.914034
70
0
0
VERTEX
8
Layer 1
10
186.655832
20
55.017768
70
0
0
VERTEX
8
Layer 1
10
186.452434
20
52.957989
70
0
0
VERTEX
8
Layer 1
10
186.433384
20
50.817248
70
0
0
VERTEX
8
Layer 1
10
186.589752
20
48.678095
70
0
0
VERTEX
8
Layer 1
10
186.910229
20
46.636175
70
0
0
VERTEX
8
Layer 1
10
187.370801
20
44.741100
70
0
0
VERTEX
8
Layer 1
10
187.967105
20
43.092946
70
0
0
VERTEX
8
Layer 1
10
188.682869
20
41.745226
70
0
0
VERTEX
8
Layer 1
10
188.799285
20
41.713741
70
0
0
VERTEX
8
Layer 1
10
190.504787
20
43.938619
70
0
0
VERTEX
8
Layer 1
10
192.592612
20
47.292738
70
0
0
VERTEX
8
Layer 1
10
194.517717
20
51.061194
70
0
0
VERTEX
8
Layer 1
10
195.805443
20
54.509769
70
0
0
VERTEX
8
Layer 1
10
195.786658
20
54.440712
70
0
0
VERTEX
8
Layer 1
10
195.977488
20
54.912993
70
0
0
VERTEX
8
Layer 1
10
196.250472
20
55.227318
70
0
0
VERTEX
8
Layer 1
10
197.864428
20
56.194633
70
0
0
VERTEX
8
Layer 1
10
199.998819
20
57.143692
70
0
0
VERTEX
8
Layer 1
10
200.666891
20
57.208515
70
0
0
VERTEX
8
Layer 1
10
201.210080
20
56.814287
70
0
0
VERTEX
8
Layer 1
10
202.593320
20
54.909024
70
0
0
VERTEX
8
Layer 1
10
203.472000
20
53.264112
70
0
0
VERTEX
8
Layer 1
10
203.480202
20
52.373790
70
0
0
VERTEX
8
Layer 1
10
202.609129
20
50.020787
70
0
0
VERTEX
8
Layer 1
10
201.178859
20
47.129226
70
0
0
VERTEX
8
Layer 1
10
199.255572
20
43.896683
70
0
0
VERTEX
8
Layer 1
10
196.893144
20
40.475228
70
0
0
VERTEX
8
Layer 1
10
194.159141
20
37.043851
70
0
0
VERTEX
8
Layer 1
10
191.120736
20
33.781543
70
0
0
VERTEX
8
Layer 1
10
188.750846
20
31.586124
70
0
0
VERTEX
8
Layer 1
10
186.421511
20
29.792888
70
0
0
VERTEX
8
Layer 1
10
184.132707
20
28.401785
70
0
0
VERTEX
8
Layer 1
10
181.884408
20
27.412765
70
0
0
VERTEX
8
Layer 1
10
179.681511
20
26.792302
70
0
0
VERTEX
8
Layer 1
10
177.528942
20
26.506502
70
0
0
VERTEX
8
Layer 1
10
175.426727
20
26.555368
70
0
0
VERTEX
8
Layer 1
10
173.374890
20
26.938897
70
0
0
VERTEX
8
Layer 1
10
173.374890
20
26.938897
70
0
0
SEQEND
8
Layer 1
0
POLYLINE
8
Layer 1
62
7
70
1
10
0.000000
20
0.000000
66
1
0
VERTEX
8
Layer 1
10
203.492637
20
52.419828
70
0
0
VERTEX
8
Layer 1
10
203.474117
20
52.351036
70
0
0
VERTEX
8
Layer 1
10
203.480202
20
52.373790
70
0
0
VERTEX
8
Layer 1
10
203.492637
20
52.419828
70
0
0
VERTEX
8
Layer 1
10
203.492637
20
52.419828
70
0
0
SEQEND
8
Layer 1
0
POLYLINE
8
Layer 1
62
7
70
1
10
0.000000
20
0.000000
66
1
0
VERTEX
8
Layer 1
10
179.172697
20
59.031492
70
0
0
VERTEX
8
Layer 1
10
179.166347
20
59.008473
70
0
0
VERTEX
8
Layer 1
10
179.153912
20
58.962701
70
0
0
VERTEX
8
Layer 1
10
179.172697
20
59.031492
70
0
0
VERTEX
8
Layer 1
10
179.172697
20
59.031492
70
0
0
SEQEND
8
Layer 1
0
POLYLINE
8
Layer 1
62
7
70
1
10
0.000000
20
0.000000
66
1
0
VERTEX
8
Layer 1
10
165.621814
20
35.542343
70
0
0
VERTEX
8
Layer 1
10
163.831960
20
34.707017
70
0
0
VERTEX
8
Layer 1
10
162.086258
20
34.075461
70
0
0
VERTEX
8
Layer 1
10
160.384708
20
33.647651
70
0
0
VERTEX
8
Layer 1
10
158.727310
20
33.423562
70
0
0
VERTEX
8
Layer 1
10
157.120469
20
33.429957
70
0
0
VERTEX
8
Layer 1
10
155.581716
20
33.672568
70
0
0
VERTEX
8
Layer 1
10
154.111077
20
34.151368
70
0
0
VERTEX
8
Layer 1
10
152.708576
20
34.866333
70
0
0
VERTEX
8
Layer 1
10
151.386794
20
35.835744
70
0
0
VERTEX
8
Layer 1
10
150.158327
20
37.077883
70
0
0
VERTEX
8
Layer 1
10
149.023225
20
38.592724
70
0
0
VERTEX
8
Layer 1
10
147.981536
20
40.380243
70
0
0
VERTEX
8
Layer 1
10
146.767597
20
43.187390
70
0
0
VERTEX
8
Layer 1
10
146.110670
20
45.837102
70
0
0
VERTEX
8
Layer 1
10
146.010757
20
48.329403
70
0
0
VERTEX
8
Layer 1
10
146.467857
20
50.664319
70
0
0
VERTEX
8
Layer 1
10
147.422440
20
52.799310
70
0
0
VERTEX
8
Layer 1
10
148.814973
20
54.691835
70
0
0
VERTEX
8
Layer 1
10
150.645457
20
56.341919
70
0
0
VERTEX
8
Layer 1
10
152.913893
20
57.749587
70
0
0
VERTEX
8
Layer 1
10
154.506695
20
58.482867
70
0
0
VERTEX
8
Layer 1
10
156.047382
20
59.008308
70
0
0
VERTEX
8
Layer 1
10
157.535930
20
59.325936
70
0
0
VERTEX
8
Layer 1
10
158.972314
20
59.435775
70
0
0
VERTEX
8
Layer 1
10
160.352838
20
59.357587
70
0
0
VERTEX
8
Layer 1
10
161.652772
20
59.100383
70
0
0
VERTEX
8
Layer 1
10
162.872090
20
58.664139
70
0
0
VERTEX
8
Layer 1
10
164.010768
20
58.048831
70
0
0
VERTEX
8
Layer 1
10
165.064569
20
57.275761
70
0
0
VERTEX
8
Layer 1
10
166.007841
20
56.355103
70
0
0
VERTEX
8
Layer 1
10
166.840583
20
55.286808
70
0
0
VERTEX
8
Layer 1
10
167.562795
20
54.070825
70
0
0
VERTEX
8
Layer 1
10
168.082349
20
52.865807
70
0
0
VERTEX
8
Layer 1
10
168.340041
20
51.766506
70
0
0
VERTEX
8
Layer 1
10
168.335845
20
50.772873
70
0
0
VERTEX
8
Layer 1
10
168.069736
20
49.884858
70
0
0
VERTEX
8
Layer 1
10
167.565507
20
49.073105
70
0
0
VERTEX
8
Layer 1
10
166.846966
20
48.307910
70
0
0
VERTEX
8
Layer 1
10
165.914112
20
47.589299
70
0
0
VERTEX
8
Layer 1
10
164.766947
20
46.917295
70
0
0
VERTEX
8
Layer 1
10
155.567925
20
42.159828
70
0
0
VERTEX
8
Layer 1
10
156.262401
20
41.221075
70
0
0
VERTEX
8
Layer 1
10
157.048035
20
40.493583
70
0
0
VERTEX
8
Layer 1
10
157.924801
20
39.977378
70
0
0
VERTEX
8
Layer 1
10
158.892675
20
39.672483
70
0
0
VERTEX
8
Layer 1
10
159.944401
20
39.583240
70
0
0
VERTEX
8
Layer 1
10
161.050944
20
39.703274
70
0
0
VERTEX
8
Layer 1
10
162.212356
20
40.032610
70
0
0
VERTEX
8
Layer 1
10
163.428686
20
40.571272
70
0
0
VERTEX
8
Layer 1
10
165.129326
20
41.631489
70
0
0
VERTEX
8
Layer 1
10
166.285653
20
42.772073
70
0
0
VERTEX
8
Layer 1
10
167.477070
20
44.567533
70
0
0
VERTEX
8
Layer 1
10
167.799068
20
45.008659
70
0
0
VERTEX
8
Layer 1
10
168.256796
20
45.319214
70
0
0
VERTEX
8
Layer 1
10
169.502189
20
45.748896
70
0
0
VERTEX
8
Layer 1
10
171.319874
20
45.965325
70
0
0
VERTEX
8
Layer 1
10
171.891406
20
45.845502
70
0
0
VERTEX
8
Layer 1
10
172.249618
20
45.481403
70
0
0
VERTEX
8
Layer 1
10
172.547010
20
44.643733
70
0
0
VERTEX
8
Layer 1
10
172.780901
20
43.666099
70
0
0
VERTEX
8
Layer 1
10
172.930655
20
42.430496
70
0
0
VERTEX
8
Layer 1
10
172.752855
20
41.775918
70
0
0
VERTEX
8
Layer 1
10
171.763579
20
40.272822
70
0
0
VERTEX
8
Layer 1
10
170.878285
20
39.238766
70
0
0
VERTEX
8
Layer 1
10
169.606434
20
38.085250
70
0
0
VERTEX
8
Layer 1
10
167.883007
20
36.832350
70
0
0
VERTEX
8
Layer 1
10
165.621814
20
35.542343
70
0
0
VERTEX
8
Layer 1
10
165.621814
20
35.542343
70
0
0
SEQEND
8
Layer 1
0
POLYLINE
8
Layer 1
62
7
70
1
10
0.000000
20
0.000000
66
1
0
VERTEX
8
Layer 1
10
153.283515
20
46.471737
70
0
0
VERTEX
8
Layer 1
10
160.273798
20
50.086999
70
0
0
VERTEX
8
Layer 1
10
160.720187
20
50.396516
70
0
0
VERTEX
8
Layer 1
10
160.965583
20
50.759536
70
0
0
VERTEX
8
Layer 1
10
161.010013
20
51.176085
70
0
0
VERTEX
8
Layer 1
10
160.853499
20
51.646187
70
0
0
VERTEX
8
Layer 1
10
159.898851
20
52.900906
70
0
0
VERTEX
8
Layer 1
10
159.287792
20
53.343569
70
0
0
VERTEX
8
Layer 1
10
158.587611
20
53.663103
70
0
0
VERTEX
8
Layer 1
10
157.821085
20
53.841200
70
0
0
VERTEX
8
Layer 1
10
157.001006
20
53.827409
70
0
0
VERTEX
8
Layer 1
10
156.127299
20
53.621729
70
0
0
VERTEX
8
Layer 1
10
155.199890
20
53.224160
70
0
0
VERTEX
8
Layer 1
10
154.270608
20
52.639659
70
0
0
VERTEX
8
Layer 1
10
153.562783
20
51.962066
70
0
0
VERTEX
8
Layer 1
10
153.076413
20
51.191356
70
0
0
VERTEX
8
Layer 1
10
152.811499
20
50.327505
70
0
0
VERTEX
8
Layer 1
10
152.786066
20
48.458656
70
0
0
VERTEX
8
Layer 1
10
153.283515
20
46.471737
70
0
0
VERTEX
8
Layer 1
10
153.283515
20
46.471737
70
0
0
SEQEND
8
Layer 1
0
POLYLINE
8
Layer 1
62
7
70
1
10
0.000000
20
0.000000
66
1
0
VERTEX
8
Layer 1
10
130.473021
20
33.388902
70
0
0
VERTEX
8
Layer 1
10
129.725839
20
33.499762
70
0
0
VERTEX
8
Layer 1
10
129.380029
20
33.843984
70
0
0
VERTEX
8
Layer 1
10
129.113990
20
34.689393
70
0
0
VERTEX
8
Layer 1
10
129.001940
20
36.067011
70
0
0
VERTEX
8
Layer 1
10
129.325525
20
38.009612
70
0
0
VERTEX
8
Layer 1
10
130.302365
20
40.527880
70
0
0
VERTEX
8
Layer 1
10
141.914648
20
65.524888
70
0
0
VERTEX
8
Layer 1
10
142.182572
20
65.958275
70
0
0
VERTEX
8
Layer 1
10
142.504668
20
66.221800
70
0
0
VERTEX
8
Layer 1
10
144.211824
20
66.931444
70
0
0
VERTEX
8
Layer 1
10
146.390863
20
67.539688
70
0
0
VERTEX
8
Layer 1
10
147.038563
20
67.501323
70
0
0
VERTEX
8
Layer 1
10
147.485708
20
67.031159
70
0
0
VERTEX
8
Layer 1
10
148.440323
20
64.960533
70
0
0
VERTEX
8
Layer 1
10
148.985100
20
63.211374
70
0
0
VERTEX
8
Layer 1
10
148.991516
20
62.795119
70
0
0
VERTEX
8
Layer 1
10
148.833229
20
62.310998
70
0
0
VERTEX
8
Layer 1
10
137.832397
20
38.630820
70
0
0
VERTEX
8
Layer 1
10
137.278559
20
37.280653
70
0
0
VERTEX
8
Layer 1
10
136.940223
20
36.079711
70
0
0
VERTEX
8
Layer 1
10
136.767451
20
34.217840
70
0
0
VERTEX
8
Layer 1
10
136.599044
20
33.554696
70
0
0
VERTEX
8
Layer 1
10
136.011537
20
33.335456
70
0
0
VERTEX
8
Layer 1
10
130.473021
20
33.388902
70
0
0
VERTEX
8
Layer 1
10
130.473021
20
33.388902
70
0
0
SEQEND
8
Layer 1
0
POLYLINE
8
Layer 1
62
7
70
1
10
0.000000
20
0.000000
66
1
0
VERTEX
8
Layer 1
10
121.265003
20
65.391274
70
0
0
VERTEX
8
Layer 1
10
121.579593
20
65.879165
70
0
0
VERTEX
8
Layer 1
10
122.215915
20
66.363616
70
0
0
VERTEX
8
Layer 1
10
124.111652
20
67.551858
70
0
0
VERTEX
8
Layer 1
10
126.253187
20
68.730311
70
0
0
VERTEX
8
Layer 1
10
127.203569
20
68.969230
70
0
0
VERTEX
8
Layer 1
10
127.967685
20
68.322324
70
0
0
VERTEX
8
Layer 1
10
129.348808
20
66.305507
70
0
0
VERTEX
8
Layer 1
10
130.459263
20
64.401998
70
0
0
VERTEX
8
Layer 1
10
130.809041
20
63.682597
70
0
0
VERTEX
8
Layer 1
10
130.893708
20
63.099720
70
0
0
VERTEX
8
Layer 1
10
130.555571
20
62.617386
70
0
0
VERTEX
8
Layer 1
10
129.890145
20
62.115207
70
0
0
VERTEX
8
Layer 1
10
128.041503
20
60.915852
70
0
0
VERTEX
8
Layer 1
10
125.934364
20
59.778145
70
0
0
VERTEX
8
Layer 1
10
125.329528
20
59.530496
70
0
0
VERTEX
8
Layer 1
10
124.960699
20
59.545048
70
0
0
VERTEX
8
Layer 1
10
124.624943
20
59.698241
70
0
0
VERTEX
8
Layer 1
10
124.173035
20
60.197245
70
0
0
VERTEX
8
Layer 1
10
122.780799
20
62.167859
70
0
0
VERTEX
8
Layer 1
10
121.681457
20
64.117571
70
0
0
VERTEX
8
Layer 1
10
121.326122
20
64.813954
70
0
0
VERTEX
8
Layer 1
10
121.265003
20
65.391274
70
0
0
VERTEX
8
Layer 1
10
121.265003
20
65.391274
70
0
0
SEQEND
8
Layer 1
0
POLYLINE
8
Layer 1
62
7
70
1
10
0.000000
20
0.000000
66
1
0
VERTEX
8
Layer 1
10
122.564106
20
33.104210
70
0
0
VERTEX
8
Layer 1
10
122.347413
20
32.531950
70
0
0
VERTEX
8
Layer 1
10
122.027532
20
32.204363
70
0
0
VERTEX
8
Layer 1
10
121.594542
20
32.105509
70
0
0
VERTEX
8
Layer 1
10
120.980577
20
32.184255
70
0
0
VERTEX
8
Layer 1
10
116.142677
20
33.335720
70
0
0
VERTEX
8
Layer 1
10
115.553120
20
33.543253
70
0
0
VERTEX
8
Layer 1
10
115.193353
20
33.830755
70
0
0
VERTEX
8
Layer 1
10
115.072968
20
34.263117
70
0
0
VERTEX
8
Layer 1
10
115.143082
20
34.870302
70
0
0
VERTEX
8
Layer 1
10
120.201644
20
56.126635
70
0
0
VERTEX
8
Layer 1
10
120.411260
20
56.694629
70
0
0
VERTEX
8
Layer 1
10
120.709379
20
57.009020
70
0
0
VERTEX
8
Layer 1
10
121.164164
20
57.120971
70
0
0
VERTEX
8
Layer 1
10
121.785438
20
57.046590
70
0
0
VERTEX
8
Layer 1
10
126.623338
20
55.895390
70
0
0
VERTEX
8
Layer 1
10
127.205586
20
55.683260
70
0
0
VERTEX
8
Layer 1
10
127.543558
20
55.382628
70
0
0
VERTEX
8
Layer 1
10
127.685639
20
54.963462
70
0
0
VERTEX
8
Layer 1
10
127.622933
20
54.360544
70
0
0
VERTEX
8
Layer 1
10
122.564106
20
33.104210
70
0
0
VERTEX
8
Layer 1
10
122.564106
20
33.104210
70
0
0
SEQEND
8
Layer 1
0
POLYLINE
8
Layer 1
62
7
70
1
10
0.000000
20
0.000000
66
1
0
VERTEX
8
Layer 1
10
94.605356
20
39.465315
70
0
0
VERTEX
8
Layer 1
10
93.056007
20
40.135636
70
0
0
VERTEX
8
Layer 1
10
91.757980
20
40.976613
70
0
0
VERTEX
8
Layer 1
10
90.711273
20
41.988246
70
0
0
VERTEX
8
Layer 1
10
89.915887
20
43.170535
70
0
0
VERTEX
8
Layer 1
10
89.414494
20
44.489597
70
0
0
VERTEX
8
Layer 1
10
89.218843
20
45.897261
70
0
0
VERTEX
8
Layer 1
10
89.328984
20
47.393528
70
0
0
VERTEX
8
Layer 1
10
89.744966
20
48.978396
70
0
0
VERTEX
8
Layer 1
10
90.465856
20
50.548068
70
0
0
VERTEX
8
Layer 1
10
91.451262
20
51.886957
70
0
0
VERTEX
8
Layer 1
10
92.796005
20
52.955112
70
0
0
VERTEX
8
Layer 1
10
94.533654
20
53.684534
70
0
0
VERTEX
8
Layer 1
10
96.767065
20
54.039076
70
0
0
VERTEX
8
Layer 1
10
99.537448
20
53.953880
70
0
0
VERTEX
8
Layer 1
10
102.937306
20
53.365447
70
0
0
VERTEX
8
Layer 1
10
107.014034
20
52.225359
70
0
0
VERTEX
8
Layer 1
10
107.280490
20
53.199103
70
0
0
VERTEX
8
Layer 1
10
107.365896
20
54.075290
70
0
0
VERTEX
8
Layer 1
10
107.270278
20
54.853995
70
0
0
VERTEX
8
Layer 1
10
106.993661
20
55.535292
70
0
0
VERTEX
8
Layer 1
10
106.552688
20
56.130455
70
0
0
VERTEX
8
Layer 1
10
105.941381
20
56.659043
70
0
0
VERTEX
8
Layer 1
10
104.207867
20
57.516490
70
0
0
VERTEX
8
Layer 1
10
102.455037
20
57.952060
70
0
0
VERTEX
8
Layer 1
10
100.934181
20
57.953846
70
0
0
VERTEX
8
Layer 1
10
99.154596
20
57.617296
70
0
0
VERTEX
8
Layer 1
10
98.736654
20
57.555185
70
0
0
VERTEX
8
Layer 1
10
98.308989
20
57.685558
70
0
0
VERTEX
8
Layer 1
10
97.097199
20
58.461845
70
0
0
VERTEX
8
Layer 1
10
95.796244
20
59.496100
70
0
0
VERTEX
8
Layer 1
10
95.592515
20
59.718350
70
0
0
VERTEX
8
Layer 1
10
95.542773
20
60.088766
70
0
0
VERTEX
8
Layer 1
10
95.659984
20
60.350438
70
0
0
VERTEX
8
Layer 1
10
95.993623
20
60.939929
70
0
0
VERTEX
8
Layer 1
10
96.651641
20
61.945345
70
0
0
VERTEX
8
Layer 1
10
97.354373
20
62.859744
70
0
0
VERTEX
8
Layer 1
10
98.289145
20
63.339962
70
0
0
VERTEX
8
Layer 1
10
100.989744
20
63.531255
70
0
0
VERTEX
8
Layer 1
10
103.571015
20
63.216137
70
0
0
VERTEX
8
Layer 1
10
106.907936
20
62.246176
70
0
0
VERTEX
8
Layer 1
10
109.252796
20
61.255129
70
0
0
VERTEX
8
Layer 1
10
111.170674
20
60.068914
70
0
0
VERTEX
8
Layer 1
10
112.661578
20
58.687523
70
0
0
VERTEX
8
Layer 1
10
113.725512
20
57.110950
70
0
0
VERTEX
8
Layer 1
10
114.362485
20
55.339190
70
0
0
VERTEX
8
Layer 1
10
114.572501
20
53.372235
70
0
0
VERTEX
8
Layer 1
10
114.355566
20
51.210081
70
0
0
VERTEX
8
Layer 1
10
113.711688
20
48.852720
70
0
0
VERTEX
8
Layer 1
10
109.270133
20
36.134215
70
0
0
VERTEX
8
Layer 1
10
108.760546
20
35.480166
70
0
0
VERTEX
8
Layer 1
10
108.370551
20
35.370430
70
0
0
VERTEX
8
Layer 1
10
107.860700
20
35.466672
70
0
0
VERTEX
8
Layer 1
10
104.442287
20
36.660470
70
0
0
VERTEX
8
Layer 1
10
103.812580
20
36.981145
70
0
0
VERTEX
8
Layer 1
10
103.429728
20
37.568784
70
0
0
VERTEX
8
Layer 1
10
102.644446
20
39.859808
70
0
0
VERTEX
8
Layer 1
10
102.484902
20
39.915635
70
0
0
VERTEX
8
Layer 1
10
100.801030
20
39.047670
70
0
0
VERTEX
8
Layer 1
10
98.897686
20
38.722630
70
0
0
VERTEX
8
Layer 1
10
96.829407
20
38.877775
70
0
0
VERTEX
8
Layer 1
10
94.605356
20
39.465315
70
0
0
VERTEX
8
Layer 1
10
94.605356
20
39.465315
70
0
0
SEQEND
8
Layer 1
0
POLYLINE
8
Layer 1
62
7
70
1
10
0.000000
20
0.000000
66
1
0
VERTEX
8
Layer 1
10
98.933140
20
43.803153
70
0
0
VERTEX
8
Layer 1
10
99.940453
20
43.525436
70
0
0
VERTEX
8
Layer 1
10
100.865687
20
43.424502
70
0
0
VERTEX
8
Layer 1
10
101.708818
20
43.500325
70
0
0
VERTEX
8
Layer 1
10
102.469821
20
43.752882
70
0
0
VERTEX
8
Layer 1
10
103.721927
20
44.519511
70
0
0
VERTEX
8
Layer 1
10
104.598391
20
45.455209
70
0
0
VERTEX
8
Layer 1
10
105.469398
20
47.949433
70
0
0
VERTEX
8
Layer 1
10
102.651556
20
48.794743
70
0
0
VERTEX
8
Layer 1
10
100.533603
20
49.118361
70
0
0
VERTEX
8
Layer 1
10
99.030804
20
49.025525
70
0
0
VERTEX
8
Layer 1
10
97.997310
20
48.592370
70
0
0
VERTEX
8
Layer 1
10
97.325600
20
47.931938
70
0
0
VERTEX
8
Layer 1
10
96.892411
20
47.112557
70
0
0
VERTEX
8
Layer 1
10
96.711040
20
45.934237
70
0
0
VERTEX
8
Layer 1
10
96.825736
20
45.438838
70
0
0
VERTEX
8
Layer 1
10
97.077355
20
45.005947
70
0
0
VERTEX
8
Layer 1
10
97.865151
20
44.314757
70
0
0
VERTEX
8
Layer 1
10
98.933140
20
43.803153
70
0
0
VERTEX
8
Layer 1
10
98.933140
20
43.803153
70
0
0
SEQEND
8
Layer 1
0
POLYLINE
8
Layer 1
62
7
70
1
10
0.000000
20
0.000000
66
1
0
VERTEX
8
Layer 1
10
71.353273
20
35.109485
70
0
0
VERTEX
8
Layer 1
10
71.373712
20
34.497934
70
0
0
VERTEX
8
Layer 1
10
71.204842
20
34.072319
70
0
0
VERTEX
8
Layer 1
10
70.843454
20
33.814186
70
0
0
VERTEX
8
Layer 1
10
70.246522
20
33.650310
70
0
0
VERTEX
8
Layer 1
10
65.338772
20
32.847565
70
0
0
VERTEX
8
Layer 1
10
64.714687
20
32.811681
70
0
0
VERTEX
8
Layer 1
10
64.271973
20
32.938317
70
0
0
VERTEX
8
Layer 1
10
63.994227
20
33.290741
70
0
0
VERTEX
8
Layer 1
10
63.824828
20
33.878115
70
0
0
VERTEX
8
Layer 1
10
58.626037
20
65.659561
70
0
0
VERTEX
8
Layer 1
10
58.604010
20
66.168552
70
0
0
VERTEX
8
Layer 1
10
58.722080
20
66.567610
70
0
0
VERTEX
8
Layer 1
10
59.735069
20
68.114097
70
0
0
VERTEX
8
Layer 1
10
61.195137
20
69.842354
70
0
0
VERTEX
8
Layer 1
10
61.752349
20
70.174670
70
0
0
VERTEX
8
Layer 1
10
62.386555
20
70.037087
70
0
0
VERTEX
8
Layer 1
10
64.339971
20
68.861280
70
0
0
VERTEX
8
Layer 1
10
65.774011
20
67.721192
70
0
0
VERTEX
8
Layer 1
10
66.013161
20
67.380475
70
0
0
VERTEX
8
Layer 1
10
66.154481
20
66.890930
70
0
0
VERTEX
8
Layer 1
10
69.170727
20
48.451612
70
0
0
VERTEX
8
Layer 1
10
69.456477
20
48.498443
70
0
0
VERTEX
8
Layer 1
10
71.108277
20
48.849966
70
0
0
VERTEX
8
Layer 1
10
72.442230
20
49.312366
70
0
0
VERTEX
8
Layer 1
10
73.458386
20
49.885594
70
0
0
VERTEX
8
Layer 1
10
74.156794
20
50.569599
70
0
0
VERTEX
8
Layer 1
10
74.614291
20
51.371091
70
0
0
VERTEX
8
Layer 1
10
74.887837
20
52.269048
70
0
0
VERTEX
8
Layer 1
10
74.977431
20
53.263496
70
0
0
VERTEX
8
Layer 1
10
74.883074
20
54.354458
70
0
0
VERTEX
8
Layer 1
10
74.675641
20
55.622869
70
0
0
VERTEX
8
Layer 1
10
74.653615
20
56.131762
70
0
0
VERTEX
8
Layer 1
10
74.771685
20
56.530918
70
0
0
VERTEX
8
Layer 1
10
75.784674
20
58.077406
70
0
0
VERTEX
8
Layer 1
10
77.244742
20
59.805662
70
0
0
VERTEX
8
Layer 1
10
77.801954
20
60.137978
70
0
0
VERTEX
8
Layer 1
10
78.435895
20
60.000395
70
0
0
VERTEX
8
Layer 1
10
80.389576
20
58.824588
70
0
0
VERTEX
8
Layer 1
10
81.823616
20
57.684500
70
0
0
VERTEX
8
Layer 1
10
82.062766
20
57.343783
70
0
0
VERTEX
8
Layer 1
10
82.204086
20
56.854239
70
0
0
VERTEX
8
Layer 1
10
82.411519
20
55.585828
70
0
0
VERTEX
8
Layer 1
10
82.505049
20
54.154136
70
0
0
VERTEX
8
Layer 1
10
82.347755
20
52.536509
70
0
0
VERTEX
8
Layer 1
10
81.852984
20
50.887892
70
0
0
VERTEX
8
Layer 1
10
80.886727
20
49.355163
70
0
0
VERTEX
8
Layer 1
10
80.200676
20
48.670161
70
0
0
VERTEX
8
Layer 1
10
79.344638
20
48.089960
70
0
0
VERTEX
8
Layer 1
10
78.318590
20
47.614583
70
0
0
VERTEX
8
Layer 1
10
77.122505
20
47.244055
70
0
0
VERTEX
8
Layer 1
10
77.141819
20
47.126580
70
0
0
VERTEX
8
Layer 1
10
79.171171
20
46.421532
70
0
0
VERTEX
8
Layer 1
10
80.972717
20
45.389857
70
0
0
VERTEX
8
Layer 1
10
82.549863
20
44.122240
70
0
0
VERTEX
8
Layer 1
10
83.906148
20
42.710161
70
0
0
VERTEX
8
Layer 1
10
85.030064
20
41.260014
70
0
0
VERTEX
8
Layer 1
10
85.918038
20
39.831498
70
0
0
VERTEX
8
Layer 1
10
87.043838
20
37.434905
70
0
0
VERTEX
8
Layer 1
10
87.078565
20
36.662818
70
0
0
VERTEX
8
Layer 1
10
86.872835
20
36.434744
70
0
0
VERTEX
8
Layer 1
10
86.518376
20
36.312015
70
0
0
VERTEX
8
Layer 1
10
80.252522
20
35.287020
70
0
0
VERTEX
8
Layer 1
10
79.575851
20
35.423545
70
0
0
VERTEX
8
Layer 1
10
79.165879
20
36.098231
70
0
0
VERTEX
8
Layer 1
10
78.004625
20
38.561235
70
0
0
VERTEX
8
Layer 1
10
77.112451
20
39.940737
70
0
0
VERTEX
8
Layer 1
10
76.023427
20
41.251779
70
0
0
VERTEX
8
Layer 1
10
74.778796
20
42.392859
70
0
0
VERTEX
8
Layer 1
10
73.372041
20
43.254143
70
0
0
VERTEX
8
Layer 1
10
71.854261
20
43.747425
70
0
0
VERTEX
8
Layer 1
10
70.236468
20
43.730128
70
0
0
VERTEX
8
Layer 1
10
69.950718
20
43.683297
70
0
0
VERTEX
8
Layer 1
10
71.353273
20
35.109485
70
0
0
VERTEX
8
Layer 1
10
71.353273
20
35.109485
70
0
0
SEQEND
8
Layer 1
 0 
ENDSEC
 0 
EOF