<svg width="964" height="387" viewBox="0 0 964 387" fill="none" xmlns="http://www.w3.org/2000/svg">
<path d="M224.74 131.241L225.252 130.329C225.748 129.447 226.363 128.637 227.078 127.922C230.583 124.417 235.987 123.66 240.321 126.067L258.651 136.25C259.536 136.742 260.531 137 261.543 137H265C266.381 137 267.5 135.881 267.5 134.5C267.5 133.119 268.619 132 270 132H271.19C272.037 132 272.859 132.292 273.517 132.826L279.14 137.395C279.939 138.044 281.078 138.067 281.902 137.449C282.29 137.157 282.762 137 283.248 137H285.676C287.899 137 289.814 138.57 290.25 140.75L290.878 143.889C290.949 144.244 291.261 144.5 291.623 144.5C292.086 144.5 292.441 144.91 292.376 145.368L291.474 151.679C291.178 153.755 291.935 155.841 293.493 157.244L296 159.5L302.135 164.366C307.211 168.392 314.196 169.01 319.9 165.938L322.436 164.573C323.135 164.197 323.915 164 324.708 164H326.318C328.075 164 329.5 162.575 329.5 160.818C329.5 159.974 329.835 159.165 330.432 158.568L330.75 158.25C331.55 157.45 332.636 157 333.768 157H339.818C341.575 157 343 155.575 343 153.818V153.635C343 152.908 343.289 152.211 343.803 151.697C344.536 150.964 345.622 150.707 346.607 151.036L349.342 151.947C350.432 152.311 351.423 152.923 352.236 153.736L352.711 154.211C353.235 154.735 353.827 155.184 354.472 155.547L356.328 156.591C359.19 158.201 362.815 157.199 364.444 154.348C365.127 153.153 366.202 152.23 367.486 151.736L374.767 148.936C377.207 147.997 379.86 147.763 382.426 148.26L385.693 148.892C390.49 149.821 395.255 147.152 396.971 142.578L399.125 136.832C399.628 135.492 399.074 133.986 397.823 133.29C396.509 132.561 395.974 130.947 396.59 129.577L398.515 125.301C399.419 123.292 401.417 122 403.619 122H404.974C405.932 122 406.83 121.538 407.387 120.758C408.294 119.488 410.032 119.139 411.36 119.961L417.318 123.649C418.667 124.484 420.36 124.531 421.753 123.771C423.631 122.747 425.974 123.217 427.311 124.888L427.82 125.525C428.584 126.48 429 127.666 429 128.889V129.794C429 131.237 429.392 132.654 430.135 133.892L431.555 136.259C431.846 136.744 432 137.299 432 137.864V138.077C432 140.043 430.118 141.462 428.228 140.922C426.515 140.433 424.76 141.557 424.49 143.318L423.909 147.09C423.119 152.223 428.513 156.067 433.108 153.646L459 140L469.219 134.578C476.988 130.455 486.625 133.677 490.354 141.642L493.178 147.676C493.985 149.399 495.716 150.5 497.619 150.5C498.83 150.5 499.998 150.948 500.898 151.759L503.433 154.039C504.031 154.578 504.946 154.554 505.515 153.985C506.246 153.254 507.477 153.454 507.939 154.378L511.72 161.94C511.849 162.197 511.662 162.5 511.374 162.5C511.039 162.5 510.862 162.898 511.088 163.147L516.505 169.106C518.403 171.194 521.816 170.675 523.007 168.117L533.903 144.723C536.143 139.913 540.686 136.581 545.947 135.889L552.425 135.036C554.881 134.713 557.282 135.934 558.468 138.108L561.136 142.999C561.803 144.223 563.479 144.424 564.416 143.392L566.334 141.283C566.782 140.79 566.432 140 565.767 140C565.343 140 565 139.657 565 139.233V137.25C565 135.731 566.231 134.5 567.75 134.5H572.5H576H579.788C580.457 134.5 581 133.957 581 133.288C581 132.809 581.282 132.375 581.72 132.18L584.392 130.992C585.123 130.668 585.913 130.5 586.712 130.5H587.603C588.809 130.5 589.955 131.02 590.749 131.927L591.943 133.292C592.558 133.995 593.583 134.167 594.393 133.704C595.477 133.084 596.857 133.622 597.236 134.812L599.49 141.896C599.803 142.881 599.541 143.959 598.81 144.69C598.291 145.209 598 145.912 598 146.645V148.685C598 149.879 598.278 151.056 598.812 152.123L600.971 156.442C602.88 160.26 606.46 162.969 610.654 163.767C613.167 164.246 615.497 165.42 617.377 167.156L627.5 176.5L635.051 184.38C636.481 185.872 639 184.829 639 182.762C639 181.52 640.007 180.5 641.25 180.5H642.62C643.106 180.5 643.5 180.106 643.5 179.62C643.5 179.248 643.734 178.917 644.084 178.791L647.328 177.633C649.288 176.933 651.473 177.343 653.045 178.706L656.046 181.307C657.192 182.3 658.87 182.379 660.104 181.497C660.979 180.873 662.104 180.716 663.116 181.077L666.732 182.368C667.885 182.78 668.892 183.522 669.627 184.502L670.525 185.7C671.139 186.519 672.102 187 673.125 187C674.766 187 676.15 185.775 676.35 184.146L678.145 169.485C678.683 165.085 681.252 161.192 685.085 158.967L688.05 157.245C691.853 155.037 696.665 155.665 699.774 158.774C700.257 159.257 700.687 159.789 701.058 160.362L706 168L706.337 168.607C707.227 170.209 709.564 170.105 710.309 168.431C710.435 168.147 710.5 167.839 710.5 167.529V165.138C710.5 163.433 711.098 161.783 712.189 160.474L714.265 157.983C715.004 157.095 716.225 156.772 717.307 157.178C718.567 157.65 719.984 157.129 720.637 155.953L720.75 155.75C721.468 154.457 723.025 153.884 724.41 154.404L726 155L730.247 156.158C730.987 156.36 731.5 157.032 731.5 157.799C731.5 158.738 732.262 159.5 733.201 159.5H733.616C733.87 159.5 734.122 159.454 734.359 159.365L734.879 159.17C736.78 158.458 738.922 158.922 740.357 160.357L740.439 160.439C741.724 161.724 742.27 163.573 741.889 165.35L741.588 166.756C741.23 168.429 741.877 170.157 743.245 171.184L744.245 171.933C744.72 172.29 745 172.85 745 173.444C745 174.848 746.477 175.761 747.733 175.133L753.971 172.014C756.824 170.588 760.294 171.559 761.992 174.26L766.127 180.838C768.569 184.723 769.066 189.522 767.472 193.825L765.855 198.191C765.287 199.726 764.564 201.2 763.697 202.59L743.646 234.756C741.886 237.578 739.85 240.218 737.566 242.636L719.112 262.175C716.711 264.718 714.049 267.002 711.171 268.989L700.523 276.342C696.529 279.099 692.155 281.261 687.538 282.758L682.222 284.482C678.1 285.819 673.793 286.5 669.459 286.5H663.099C659.763 286.5 656.489 285.593 653.627 283.876C649.988 281.693 647.215 278.319 645.777 274.325L643.5 268L638.424 253.498C637.416 250.617 634.066 249.328 631.387 250.789C631.129 250.929 630.86 251.047 630.582 251.139L624.828 253.057C622.946 253.685 621.126 254.481 619.388 255.436C614.541 258.102 609.1 259.5 603.568 259.5H583.5H515H495.186C491.738 259.5 488.299 259.857 484.925 260.564L470.613 263.565C462.977 265.166 455.072 264.958 447.531 262.957L434.5 259.5L412.662 254.79C410.227 254.265 407.852 253.493 405.573 252.488L395.165 247.896C393.134 247 391.531 245.352 390.69 243.298C388.919 238.97 384.006 236.859 379.647 238.554L378.5 239C374.636 240.932 370.196 241.372 366.028 240.235L361.5 239L352.026 235.842C351.345 235.615 350.692 235.308 350.083 234.927C346.077 232.423 340.823 233.403 337.989 237.182L333.48 243.193C330.918 246.609 327.181 248.956 322.991 249.779L306.559 253.006C303.647 253.578 300.752 251.944 299.738 249.155C299.58 248.72 299.372 248.304 299.119 247.917L293.833 239.833C291.949 236.952 289.773 234.273 287.34 231.84L284.066 228.566C283.024 227.524 281.889 226.58 280.675 225.745L276.193 222.664C275.09 221.906 273.784 221.5 272.445 221.5C268.483 221.5 265.41 224.959 265.876 228.894L268.061 247.352C268.867 254.152 264.188 260.385 257.434 261.511L244.343 263.693C243.378 263.854 242.5 263.11 242.5 262.132C242.5 262.044 242.493 261.956 242.478 261.87L222.595 143.517C221.886 139.3 222.643 134.967 224.74 131.241Z" fill="white"/>
<path d="M693.225 175.892C690.793 176.312 708.57 143.613 706.496 145.001C698.939 140.023 689.103 139.52 680.974 144.015L680.519 144.273L677.554 145.995C670.159 150.289 665.048 157.595 663.518 165.949C662.671 165.879 661.823 165.868 660.979 165.916C655.722 162.325 675.581 259.663 669.459 261.62L657.627 174.449L639.039 164.665C637.495 224.363 637.994 165.072 637.495 165.312L627.552 156.134L627.179 155.796C623.468 152.489 618.961 150.204 614.103 149.163L613.702 148.362C614.873 144.855 614.946 141.003 613.783 137.349L611.529 130.265L611.37 129.786C609.235 123.691 604.02 119.67 598.178 118.678C595.071 116.625 591.401 115.5 587.604 115.5H586.712C583.995 115.5 581.306 116.035 578.799 117.071L578.3 117.285L583.007 143.339C582.331 143.639 574.305 119.118 573.687 119.5H567.75C565.047 119.5 561.793 149.976 559.5 151.057C556.447 149.978 553.819 119.723 550.468 120.164L543.99 121.017C533.644 122.378 524.711 128.931 520.306 138.391L518.076 143.177C515.388 140.569 511.932 139.021 508.341 138.635C507.172 137.888 512.134 166.764 510.843 166.277L503.939 135.283C496.574 119.548 477.535 113.184 462.188 121.327L452.007 126.73L431.003 225.764C430.733 225.18 444.751 129.097 444.418 128.542L443.969 127.794C443.741 123.556 442.196 119.483 439.533 116.154L439.023 115.518L438.745 115.177C434.361 109.941 422.299 142.211 415.824 143.105L419.255 107.207C413.249 103.489 405.859 103.725 400.21 107.287C393.745 108.371 388.113 112.491 385.159 118.46L415.824 129.786L382.911 123.422C381.506 126.545 381.069 129.873 381.482 133.057C377.544 132.824 373.587 133.397 369.858 134.757L399.519 147.78L382.843 234.193C381.516 234.704 359.511 138.887 358.328 139.644C356.989 138.859 359.811 158.293 358.328 157.799L351.35 136.806L350.751 136.617C344.739 134.846 338.234 136.382 333.648 140.654L333.196 141.091C332.885 141.403 340.956 162.711 340.67 163.043C336.255 163.38 323.708 144.244 320.486 147.31L320.144 147.644L319.825 147.961C319.127 148.659 318.492 149.41 317.923 150.201C357.151 234.193 307.056 231.29 306.388 231.624M693.225 175.892C697.913 172.747 724.082 138.261 729.677 140.358L730.616 140.711L739.209 199.034C741.037 199.533 737.708 142.977 739.209 144.001C743.572 144.549 747.729 146.515 750.964 149.75L751.046 149.833C752.954 151.741 754.432 153.978 755.439 156.396C762.968 155.936 770.448 159.527 774.691 166.277L778.826 172.855C783.748 180.686 784.75 190.36 781.538 199.034L779.922 203.4C779.001 205.887 777.83 208.275 776.427 210.525L756.375 242.69C754.088 246.36 751.44 249.792 748.471 252.936L730.018 272.475C726.896 275.78 723.436 278.75 719.694 281.333L709.046 288.685C703.854 292.269 698.167 295.08 692.166 297.026L686.85 298.75C681.233 300.572 675.364 301.5 669.459 301.5H663.1C657.044 301.5 651.103 299.854 645.91 296.738C639.306 292.776 634.273 286.653 631.664 279.406L629.364 273.019L629.342 272.955L627.63 268.063C627.287 268.225 626.949 268.397 626.617 268.58C619.556 272.464 611.627 274.5 603.568 274.5H495.186C492.772 274.5 490.365 274.75 488.003 275.245L473.691 278.246C463.765 280.327 453.488 280.057 443.685 277.456L431.003 274.091L409.499 269.452C406.071 268.713 402.727 267.627 399.519 266.212L389.11 261.62C385.492 260.024 382.367 257.557 379.986 254.482C374.191 256.218 367.989 256.317 362.081 254.706L357.151 253.362L347.283 250.072C347.227 250.053 347.171 250.032 347.114 250.013L345.48 252.193C340.693 258.576 333.711 262.959 325.882 264.497L309.45 267.725C299.675 269.645 289.957 264.442 286.078 255.382L283.085 250.804C282.214 263.413 272.804 274.156 259.899 276.307L246.809 278.489C237.215 280.088 228.439 273.147 227.571 263.676L207.802 146.002C206.526 138.405 207.889 130.601 211.666 123.887L212.179 122.976L212.4 122.589C213.526 120.665 214.895 118.893 216.472 117.315L216.861 116.934C224.978 109.146 237.182 107.436 247.126 112.694L247.605 112.955L260.238 119.973C263.027 118.095 266.386 117 270 117H271.189C275.348 117 279.384 118.387 282.661 120.935L282.976 121.185L283.979 122H285.676C294.533 122 302.224 127.907 304.597 136.312C306.76 139.443 307.814 143.372 307.226 147.489L306.998 149.077L311.456 152.613C311.837 152.915 312.361 152.962 312.789 152.731L315.325 151.365L306.388 231.624M693.225 175.892C700.124 188.311 718.246 187.505 724.016 174.523C724.343 173.787 724.616 173.028 724.836 172.257C725.642 172.724 682.027 247.552 682.911 247.881C683.773 250.638 729.71 178.769 731.719 180.916C735.473 188.533 744.75 192.563 753.227 189.099L751.789 192.981C751.573 193.566 751.297 194.126 750.968 194.654L730.917 226.82C729.685 228.796 728.259 230.644 726.66 232.337L708.207 251.876C706.526 253.656 704.663 255.254 702.648 256.646L692 263.998C689.205 265.928 686.143 267.441 682.911 268.489L677.595 270.214C674.967 271.066 672.221 271.5 669.459 271.5H663.1C662.481 271.5 661.875 271.332 661.345 271.014L661.1 270.853C660.546 270.452 660.124 269.892 659.891 269.245L657.627 262.957L652.582 248.542L652.385 248.003C648.221 237.095 635.603 232.114 625.14 237.142L649.182 213.385C646.441 214.298 614.69 240.901 612.159 242.293C609.527 243.741 606.572 244.5 603.568 244.5H495.186C490.703 244.5 486.233 244.964 481.847 245.884L467.535 248.884C462.19 250.005 456.656 249.86 451.377 248.459L438.347 245.002L438.007 244.911L415.824 240.127C414.383 239.816 412.976 239.36 411.627 238.765L403.378 235.125C397.843 225.102 385.742 220.411 374.773 224.363L374.211 224.574L373.063 225.02L372.414 225.272L371.792 225.584C371.229 225.865 370.582 225.929 369.975 225.764L365.849 224.638L357.385 221.817C347.028 215.781 333.776 218.289 326.346 227.718L325.988 228.182L321.48 234.193C321.143 234.643 320.651 234.951 320.1 235.06L309.938 237.055L306.388 231.624M693.225 175.892L693.132 175.726L692.594 174.893L691.238 185.969C690.118 195.121 682.346 202 673.125 202C668.398 202 663.899 200.167 660.533 196.958C656.653 197.457 652.66 196.705 649.182 194.732C642.889 201.237 631.786 202.652 624.222 194.758L616.983 187.206L607.471 178.425C598.846 176.662 591.498 171.037 587.555 163.15L585.395 158.832C583.894 155.829 583.08 152.532 583.007 149.18C581.966 149.389 580.89 149.5 579.788 149.5H578.905C578.471 150.142 607.471 319 577.434 151.373L536.604 238.827L575.515 153.481C567.777 161.993 554.064 160.515 548.27 150.712L547.904 150.761C547.728 150.784 547.575 150.895 547.5 151.057L536.604 174.449C530.887 186.723 514.514 189.214 505.406 179.195L499.989 173.237L499.988 173.236C498.379 171.465 495.828 230.21 495.189 228.182C494.042 227.566 494.407 166.097 493.398 165.188L493.187 164.998C487.288 163.651 482.227 159.662 479.593 154.035L467.535 228.182C467.499 228.104 476.703 147.895 476.685 147.879C476.657 147.855 476.61 147.824 476.546 147.803C476.482 147.781 476.427 147.778 476.391 147.78C476.367 147.782 476.326 147.788 476.25 147.828L466.03 153.25L440.102 166.916C426.78 173.936 411.47 165.34 409.129 151.79C403.836 160.758 393.369 165.656 382.843 163.619L379.871 163.043L375.418 164.756C369.073 172.442 357.955 174.715 348.975 169.664L351.35 196.958C348.918 198.354 343.64 171.842 340.67 171.979C337.538 176.001 332.753 178.672 327.335 178.971L327.012 179.146C316.031 185.058 302.586 183.868 292.814 176.118L286.679 171.253L286.312 170.962L284.691 210.304M306.388 231.624C303.939 227.879 301.11 224.397 297.946 221.233L294.673 217.96C292.983 216.27 291.142 214.739 289.173 213.385L284.691 210.304M284.691 210.304L284.352 210.074C280.935 207.819 276.947 206.581 272.854 206.504L272.445 206.5C261.909 206.5 273.21 238.163 271.189 247.881L259.899 172.257L251.366 149.362C254.479 151.092 257.982 152 261.544 152H265C267.457 152 290.693 139.549 292.814 138.635C265 137.349 274.855 152.005 276.413 152.39C276.362 158.442 280.126 206.195 284.691 210.304ZM511.936 177.489C511.989 177.487 512.042 177.484 512.095 177.481M512.529 177.456C512.548 177.455 512.568 177.454 512.587 177.452M513.107 177.403C513.115 177.402 513.122 177.402 513.13 177.401M565.153 154.986C565.176 154.987 536.581 225.763 536.604 225.764M510.373 147.532C510.37 147.532 510.368 147.533 510.365 147.533M511.374 147.5C511.196 147.5 511.019 147.504 510.843 147.51M495.189 143.105C495.108 143.182 495.028 143.26 494.948 143.339M252.505 134.142C252.503 134.203 252.503 134.265 252.502 134.327M257.489 261.62C257.495 261.791 276.413 242.52 276.413 242.69C276.413 242.519 257.496 261.79 257.489 261.62ZM653.992 183.184C653.997 183.044 654 182.903 654 182.762C654 182.903 653.995 183.044 653.992 183.184ZM746.5 157.799C746.5 157.624 746.496 157.449 746.489 157.275C746.495 157.449 746.5 157.624 746.5 157.799ZM609.416 155.296L620.084 232.337C620.185 232.236 609.616 155.093 609.713 154.989C609.615 155.092 609.517 155.195 609.416 155.296Z" stroke="#FA4F4F" stroke-width="30"/>
<path d="M655.276 285.185C653.104 284.595 651.524 283.916 650.534 283.15C649.529 282.442 648.732 281.666 648.142 280.822C647.009 278.96 645.916 276.487 644.863 273.404C644.626 272.656 644.39 271.784 644.156 270.788C643.907 269.851 643.861 269.092 644.018 268.514C644.191 267.877 644.495 267.338 644.93 266.897C645.366 266.456 645.851 266.06 646.388 265.708C647.658 264.748 649.148 263.786 650.86 262.822C652.557 261.916 653.976 261.215 655.12 260.718C655.907 260.372 656.53 260.169 656.988 260.107C657.43 260.103 657.798 260.141 658.092 260.22C658.385 260.3 658.81 260.478 659.365 260.753C659.921 261.028 660.786 261.326 661.959 261.645C666.009 262.746 670.59 262.592 675.7 261.185C680.81 259.777 686.483 256.068 692.719 250.057C689.359 244.793 686.334 238.532 683.642 231.275C681.025 223.975 678.952 216.296 677.425 208.236C675.912 200.118 675.067 192.213 674.889 184.52C674.77 176.843 675.529 169.996 677.165 163.977C677.511 162.704 678.109 161.779 678.96 161.202C682.556 158.637 687.337 156.239 693.302 154.007C694.34 153.668 695.211 153.594 695.915 153.785C696.678 153.993 697.392 154.497 698.056 155.3C700.237 157.943 702.009 160.352 703.372 162.525C704.794 164.714 705.931 166.794 706.782 168.765C707.223 169.693 707.255 170.852 706.877 172.241L706.971 171.893C705.728 176.465 704.972 181.449 704.703 186.845C704.434 192.241 704.607 197.633 705.222 203.021C705.853 208.351 706.837 213.311 708.174 217.901C709.526 222.432 711.179 226.207 713.133 229.224L713.573 229.343C715.345 227.463 717.493 224.66 720.019 220.934C722.619 217.166 725.249 212.941 727.91 208.257C730.585 203.515 733.011 198.767 735.186 194.014C737.376 189.202 738.998 184.858 740.053 180.98L739.982 181.241C740.359 179.852 740.944 178.861 741.735 178.268C743.526 177.015 745.559 175.796 747.835 174.612C750.111 173.429 752.8 172.233 755.902 171.025C756.881 170.67 757.722 170.588 758.427 170.78C759.248 171.003 759.933 171.5 760.48 172.27C762.602 174.898 764.345 177.298 765.708 179.471C767.071 181.644 768.178 183.717 769.029 185.688C769.412 186.6 769.422 187.721 769.06 189.053C767.57 194.303 764.67 200.911 760.362 208.875C756.069 216.782 750.67 225.165 744.164 234.024C737.659 242.883 730.386 251.316 722.347 259.323C710.302 271.4 698.666 279.423 687.438 283.394C676.21 287.364 665.489 287.961 655.276 285.185ZM769.107 188.879L769.037 189.139L769.06 189.053C769.076 188.995 769.092 188.937 769.107 188.879ZM677.189 163.89L677.165 163.977L677.118 164.15L677.189 163.89Z" fill="#176B22"/>
<path d="M625.973 252.668C616.842 257.391 608.156 260.06 599.915 260.676C591.646 261.239 584.063 259.421 577.167 255.223C570.271 251.025 564.315 244.078 559.301 234.383C551.78 219.84 549.873 206.884 553.58 195.514C557.287 184.144 565.408 175.218 577.943 168.735C586.101 164.516 593.734 162.392 600.841 162.362C608.001 162.305 614.349 164.052 619.884 167.604C625.473 171.128 629.948 176.139 633.309 182.639C636.587 188.978 637.226 194.251 635.225 198.46C633.224 202.668 629.063 206.407 622.742 209.676L587.974 227.657C591.244 232.92 595.433 236.054 600.54 237.058C605.702 238.035 611.416 236.903 617.684 233.661C622.655 231.091 626.254 228.318 628.482 225.343C630.736 222.286 632.237 220.025 632.985 218.557C633.625 217.281 634.608 216.334 635.932 215.716C636.959 215.185 638.528 214.644 640.639 214.092C642.777 213.459 645.067 213.187 647.509 213.274C649.218 213.268 650.389 213.878 651.023 215.103C651.381 215.795 651.756 216.851 652.147 218.269C652.37 219.098 652.665 220.33 653.031 221.964C653.369 223.545 653.557 225.101 653.597 226.634C653.576 227.388 653.352 228.212 652.925 229.108C652.23 230.413 650.984 232.307 649.186 234.789C647.442 237.244 644.725 240 641.033 243.057C637.368 246.167 632.348 249.371 625.973 252.668ZM579.34 211.36L605.76 197.696C608.516 196.271 609.246 194.307 607.951 191.803C605.995 188.021 603.14 185.48 599.387 184.18C595.659 182.799 591.392 183.352 586.583 185.839C581.342 188.55 578.333 192.199 577.556 196.787C576.833 201.347 577.428 206.205 579.34 211.36Z" fill="#176B22"/>
<path d="M493.127 260.807C491.741 260.758 490.8 260.619 490.303 260.388C489.807 260.157 489.371 259.724 488.996 259.087C488.132 257.627 487.655 254.827 487.567 250.685C487.559 246.516 489.198 240.895 492.482 233.825L536.371 139.348C536.978 138.042 537.721 137.164 538.601 136.714C542.308 134.798 547.204 133.138 553.289 131.733C554.314 131.548 555.13 131.596 555.737 131.878C556.454 132.211 557.017 132.803 557.427 133.655C558.965 136.552 560.168 139.16 561.035 141.481C561.957 143.827 562.643 146.031 563.094 148.092C563.318 149.055 563.126 150.19 562.52 151.495L520.942 240.995C519.275 244.585 518.151 247.799 517.57 250.637C517.014 253.421 516.797 255.766 516.917 257.674C517.021 259.904 516.068 261.016 514.06 261.009L493.127 260.807Z" fill="#176B22"/>
<path d="M458.325 139.853C458.505 139.095 458.902 138.48 459.514 138.009C460.126 137.539 460.928 136.928 461.919 136.178C464.021 134.705 466.409 133.208 469.084 131.687C471.774 130.108 474.472 128.623 477.178 127.233C478.862 126.462 480.059 126.161 480.77 126.33C481.48 126.499 482.442 127.314 483.658 128.775C487.479 133.999 490.618 138.939 493.075 143.592C493.636 144.65 494.076 145.556 494.397 146.311C494.791 147.021 494.897 147.755 494.717 148.514C494.536 149.272 494.11 149.88 493.439 150.337C492.827 150.807 491.988 151.44 490.924 152.235C488.896 153.663 486.567 155.174 483.937 156.768C481.32 158.303 478.666 159.736 475.973 161.068C474.978 161.571 474.216 161.883 473.687 162.004C473.172 162.066 472.707 162.048 472.293 161.949C471.879 161.851 471.456 161.658 471.024 161.37C470.665 161.038 470.096 160.409 469.316 159.484C467.393 157.053 465.639 154.571 464.054 152.036C462.483 149.443 461.098 146.986 459.899 144.667C459.352 143.55 458.904 142.673 458.556 142.035C458.221 141.339 458.144 140.612 458.325 139.853ZM463.235 261.883C462.819 263.633 462.143 264.767 461.207 265.284C460.344 265.757 459.025 265.782 457.25 265.36L438.965 261.008C437.19 260.586 435.994 259.962 435.377 259.137C434.834 258.268 434.77 256.958 435.187 255.208L454.306 174.869C454.723 173.118 455.362 172.007 456.225 171.534C457.161 171.017 458.517 170.97 460.292 171.392L478.577 175.743C480.352 176.166 481.511 176.812 482.055 177.681C482.671 178.506 482.771 179.793 482.355 181.544L463.235 261.883Z" fill="#176B22"/>
<path d="M357.564 237.841C349.123 234.893 343.215 230.225 339.84 223.837C336.543 217.413 336.327 210.096 339.194 201.886C340.677 197.64 342.827 193.976 345.643 190.893C348.536 187.775 352.42 185.51 357.293 184.099C362.244 182.652 368.548 182.312 376.205 183.081C383.919 183.869 393.338 186.046 404.463 189.614C406.262 184.461 406.236 180.292 404.386 177.104C402.593 173.937 399.083 171.441 393.857 169.616C389.148 167.972 385.024 167.421 381.484 167.963C377.944 168.506 375.702 168.93 374.758 169.235C373.717 169.634 372.652 169.548 371.562 168.977C370.091 168.209 368.564 167.231 366.982 166.043C365.457 164.875 363.818 163.572 362.065 162.134C361.817 161.921 361.561 161.641 361.295 161.294C361.05 160.89 360.987 160.424 361.107 159.894C361.206 159.611 361.354 159.281 361.55 158.905C361.765 158.472 362.186 157.73 362.811 156.677C363.436 155.625 364.265 154.358 365.298 152.877C366.35 151.339 367.236 150.187 367.954 149.421C368.807 148.639 369.985 148.034 371.487 147.606C372.74 147.154 376.143 146.913 381.694 146.883C387.246 146.852 394.702 148.471 404.062 151.74C429.847 160.745 438.418 177.618 429.777 202.361L412.99 250.431C412.614 251.507 411.972 252.331 411.064 252.903C410.232 253.439 409.099 253.456 407.663 252.954L394.743 248.442C393.824 248.121 393.031 247.717 392.363 247.23C391.773 246.706 391.29 245.966 390.916 245.009L387.948 236.35L387.345 236.139C383.379 239.01 378.859 240.513 373.787 240.648C368.772 240.802 363.364 239.866 357.564 237.841ZM373.921 221.446C379.204 223.291 383.66 223.354 387.288 221.636C390.916 219.917 393.598 217.773 395.333 215.202L398.625 205.775C390.643 202.988 384.425 201.515 379.97 201.357C375.592 201.162 372.397 201.825 370.384 203.345C368.391 204.809 366.999 206.673 366.208 208.938C365.061 212.222 365.294 214.876 366.907 216.9C368.539 218.868 370.877 220.383 373.921 221.446Z" fill="#176B22"/>
<path d="M269.682 254.304C269.972 256.079 269.785 257.386 269.121 258.224C268.507 258.993 267.3 259.525 265.499 259.819L246.95 262.853C245.149 263.148 243.805 263.034 242.918 262.51C242.082 261.918 241.518 260.734 241.228 258.958L221.579 138.839C221.347 137.418 221.468 136.274 221.942 135.407C223.931 131.739 227.047 127.614 231.289 123.03C232.033 122.301 232.735 121.882 233.395 121.774C234.176 121.647 234.974 121.82 235.792 122.294C238.692 123.825 241.153 125.306 243.175 126.738C245.257 128.16 247.063 129.596 248.595 131.047C249.321 131.718 249.8 132.764 250.033 134.185L261.433 203.877L262.513 203.7C271.638 202.208 277.559 199.598 280.278 195.872C283.047 192.076 283.962 187.308 283.023 181.567L282.239 176.773C282.007 175.353 282.128 174.208 282.602 173.341C284.591 169.673 287.707 165.548 291.949 160.964C292.693 160.235 293.395 159.816 294.055 159.708C294.835 159.581 295.634 159.754 296.451 160.228C299.352 161.759 301.813 163.24 303.835 164.672C305.917 166.094 307.723 167.53 309.255 168.981C309.981 169.652 310.46 170.698 310.693 172.119L311.477 176.913C312.029 180.286 311.948 184.128 311.236 188.438C310.583 192.738 308.743 196.746 305.714 200.462C302.685 204.178 297.943 206.838 291.487 208.441L291.56 208.885C296.96 210.25 301.787 212.438 306.039 215.449C310.291 218.461 313.987 221.837 317.126 225.577C320.255 229.258 322.79 232.885 324.73 236.457C326.721 239.96 328.139 242.979 328.985 245.515C329.822 247.991 329.16 249.406 326.999 249.759L303.317 253.633C301.276 253.967 299.907 252.945 299.21 250.567C298.335 247.854 296.872 244.751 294.821 241.258C292.821 237.696 290.325 234.306 287.333 231.089C284.401 227.861 281.061 225.339 277.312 223.521C273.614 221.635 269.663 221.035 265.461 221.722L264.381 221.899L269.682 254.304Z" fill="#176B22"/>
</svg>
